<svg xmlns="http://www.w3.org/2000/svg" viewBox="0 0 280.733 280.733" width="280.732" height="280.732" xmlns:v="https://vecta.io/nano"><rect width="280.732" height="280.732" rx="63.648" fill="#ffcd40" paint-order="markers fill stroke"/><path d="M140.675 238.097l-.159-33.362c-.075-18.332 10.547-34.9 27.059-42.864 21.261-10.253 35.852-32.149 35.5-57.415-.47-33.778-28.038-61.346-61.816-61.816-35.046-.488-63.608 27.775-63.608 62.709l.021.157c0 14.151 4.687 27.208 12.593 37.702" fill="none" stroke="#0f9d58" stroke-width="25.483" stroke-linecap="round" stroke-linejoin="round"/><path d="M169.473 35.743c-8.014-3.004-16.559-4.636-25.326-4.76-.363 0-.721-.005-1.084-.005-19.958 0-38.735 7.694-52.967 21.731-14.493 14.292-22.474 33.372-22.474 53.726a12.22 12.22 0 0 0 .022.77c.13 16.293 5.362 31.756 15.154 44.753a12.53 12.53 0 0 0 3.654 3.275 9.65 9.65 0 0 0 .455.26 12.64 12.64 0 0 1-6.821-4.62c-9.792-12.996-15.024-28.46-15.154-44.753-.016-.255-.022-.515-.022-.77 0-20.354 7.981-39.434 22.474-53.726 14.233-14.037 33.009-21.731 52.967-21.731l1.084.005c9.76.136 19.248 2.142 28.037 5.845z" opacity=".15" fill="#fff"/><path d="M215.815 104.282c.206 14.677-3.812 28.964-11.614 41.315-7.58 11.999-18.332 21.596-31.09 27.75-12.118 5.845-19.91 18.142-19.855 31.339l.163 33.351c.029 6.376-4.627 11.679-10.736 12.645h0c5.088-1.69 8.594-6.449 8.567-12.102l-.163-35.519c-.054-13.197 7.737-25.494 19.855-31.339 12.758-6.154 23.51-15.751 31.09-27.75 7.802-12.351 11.82-26.638 11.614-41.321-.271-19.671-8.138-38.219-22.149-52.23a76.88 76.88 0 0 0-7.114-6.284c3.269 2.359 6.376 5.004 9.282 7.911 14.01 14.01 21.878 32.559 22.149 52.235z" opacity=".2"/><path d="M129.789 81.511v20.056h21.154V81.511h11.492v52.262h-11.492v-22.545h-21.154v22.545h-11.492V81.511z" fill="#0f9d58"/></svg>