<svg xmlns="http://www.w3.org/2000/svg" xmlns:xlink="http://www.w3.org/1999/xlink" width="755.9" height="755.91" xmlns:v="https://vecta.io/nano"><style><![CDATA[.d{stroke-miterlimit:10}.e{stroke-linecap:round}.f{stroke-linejoin:round}.g{opacity:.2}.h{fill:#fff}.i{fill:none}.j{fill:#ffcd40}.k{stroke-width:3}.l{fill:#1d1d1b}.m{stroke-width:10.667}.n{fill:#009d5e}.o{stroke-width:5}.p{stroke-width:6.667}]]></style><defs><clipPath id="A"><path d="M1622.4 439.31h310.78V159.99H1622.4z"/></clipPath><clipPath id="B"><path d="M1606.1 506.8h420.46v-46.563H1606.1z"/></clipPath><clipPath id="C"><path d="M1803.6 98.571h31.02V73.089h-31.02z"/></clipPath><clipPath id="D"><path d="m1682.6 237.68h27.88v-26.474h-27.88z"/></clipPath><clipPath id="E"><path d="m1874.2 399.34h27.15v-174.6h-27.15z"/></clipPath><clipPath id="F"><path d="M1724.4 218.46h148.97v-53.198H1724.4z"/></clipPath><clipPath id="G"><path d="m1693.3 460.44h6.27v-53.262h-6.27z"/></clipPath><clipPath id="H"><path d="m1683.2 339.4h14v-25.064h-14z"/></clipPath><clipPath id="I"><path d="M1702.8 724.11h183.27v-377.2H1702.8z"/></clipPath><clipPath id="J"><path d="M1702.8 724.11h183.27v-377.2H1702.8z"/></clipPath><mask id="K" x="0" y="0" width="1" height="1" maskUnits="userSpaceOnUse"><g clip-path="url(#I)"><path d="M1702.7 724.11h183.27v-377.2H1702.7z"/><g clip-path="url(#J)"><path d="M1706.3 586.7h175.45v-146H1706.3z" class="h"/></g></g></mask><clipPath id="L"><path d="M1702.8 724.11h183.27v-377.2H1702.8z"/></clipPath><clipPath id="M"><path d="M1445.5 334.55h364.72V-77.73H1445.5z"/></clipPath><clipPath id="N"><path d="m1639.8 229.46h17.33v-19.419h-17.33z"/></clipPath><clipPath id="O"><path d="m1585.7 229.16h15.2v-6.624h-15.2z"/></clipPath><clipPath id="P"><path d="M1716.3 185.67h46.68V76.95h-46.68z"/></clipPath><clipPath id="Q"><path d="m1700.1 208.62h15.29v-14.802h-15.29z"/></clipPath><path id="R" d="M490.27 454.14H315.43c-4.184 0-7.575-3.392-7.575-7.576v-29.78c0-4.184 3.391-7.576 7.575-7.576h174.84a7.58 7.58 0 0 1 7.576 7.576v29.78a7.58 7.58 0 0 1-7.576 7.576z"/></defs><g clip-path="url(#A)" opacity=".1" transform="matrix(1.3333 0 0 -1.3333 -1985.1 849.03)"><path d="m1933.2 159.99h-310.78v279.32h310.78z" fill="#1f4f66"/></g><g class="d"><path d="M167.54 287.63h14.695M167.54 612.8h14.695M586.14 287.63h14.695M586.14 612.8h14.695" stroke="#c6c6c6" class="i p"/><path d="m164.24 245.37v397.15" stroke="#9d9d9c" class="e h m"/></g><g clip-path="url(#B)" opacity=".1" transform="matrix(1.3333 0 0 -1.3333 -1985.1 849.03)"><path d="M1606.1 461l25.892 25.892a67.96 67.96 0 0 0 48.056 19.905h271.81c18.024 0 35.311-7.16 48.056-19.905l26.658-26.658z" fill="#1f4f66"/></g><g stroke="#9d9d9c" class="d e"><path d="m148.05 242.31h575.73" stroke-width="13.333" class="h"/><path d="M366.84 645.02l.013-15.269c.011-24.987 20.269-45.236 45.256-45.236h190.46" class="i p"/><path d="m604.36 245.37v397.29" class="h m"/><path d="M71.692 652.39V235.44" stroke-width="9.333" class="i"/></g><path d="M125.9 280.79c0 29.94-24.271 54.211-54.209 54.211S17.48 310.73 17.48 280.79s24.271-54.211 54.211-54.211S125.9 250.85 125.9 280.79" class="n"/><path d="M71.692 232.5c-26.631 0-48.297 21.667-48.297 48.297s21.667 48.297 48.297 48.297 48.297-21.665 48.297-48.297S98.324 232.5 71.692 232.5m0 8c22.256 0 40.297 18.041 40.297 40.297s-18.041 40.297-40.297 40.297-40.297-18.041-40.297-40.297S49.436 240.5 71.692 240.5m-20.933 12.83h7.431v22.515h27.003V253.33h7.431v54.925h-7.431v-26.157H58.19v26.157h-7.431z" class="j"/><path d="M278.07 487.64s-4.907-6.057-15.656-5.428c13.677-3.036 15.763-10.243 15.763-10.243zm368.15 252.08a323.42 323.42 0 0 0-22.403-57.132l-16.713-29.593 1.257-27.892a148.26 148.26 0 0 1 1.963-18.185l19.336-112.87a94.61 94.61 0 0 0-.675-35.665l-18.844-100.13c-1.089-5.735-3.267-11.193-6.441-16.084l-21.313-38.764-3.127-2.085-3.651-26.112-5.412-24.441-1.917-2.239c-1.088-1.257-2.484-2.224-4.063-2.776l-2.453-.873a29.03 29.03 0 0 0-32.123 20.547l-1.473 5.919a75.25 75.25 0 0 0-1.579 8.249l-1.411 10.441c-1.104 10.12-.981 20.317.368 30.36.843 6.241 2.147 12.436 3.925 18.508l2.377 22.157 1.364 1.517c2.407 2.699 3.265 6.44 2.284 9.905l-.644 2.315a23.19 23.19 0 0 0-.765 8.648l3.403 32.553-19.212-11.071-3.588-4.017-140.96-157.86-100.11-6.547-18.4.307c-5.244.092-10.351 1.656-14.72 4.569-5.044 3.357-11.301 8.663-13.248 16.836-3.909 16.299 12.803 29.103 12.803 29.103s4.815 4.999 18.248 11.699c9.46 4.739 18.092 5.857 18.092 5.857l.429 20.884s-17.756 0-30.299 17.343c-10.227 15.456-13.769 16.376-13.355 35.083.26 12.175.981 21.207 1.441 26.051a13.26 13.26 0 0 0 2.883 7.084l1.732 2.163s-6.685 2.713-11.699 17.756-1.672 19.841-1.672 19.841 3.757 9.613 9.185 18.384c7.865 12.313 13.569 13.187 15.072 13.187-1.824.184-10.349 1.273-14.935 6.716-5.152 6.135-10.856 19.367-11.132 25.899-.153 3.68 2.668 9.153 5.337 13.171 2.253 3.389 5.289 6.18 8.861 8.143l23.797 10.596a80.86 80.86 0 0 1 10.733 5.78l25.637 16.421s17.036 36.448 49.972 76.928c30.16 37.045 37.459 35.988 37.459 35.988l13.939 14.412a129.88 129.88 0 0 1 17.617 22.863l8.909 14.675a27.19 27.19 0 0 1 2.944 6.792l11.111 48.515 109.65 11.697 127.75 23.393z" fill="#af8260"/><g transform="matrix(1.3333 0 0 -1.3333 -1985.1 849.03)" class="l"><g clip-path="url(#C)" class="g"><path d="M1803.6 94.289l4.177-6.475c2.924-4.491 3.551-7.728 4.282-11.801l.94-2.924s-1.044 12.532 10.889 18.873l10.729 6.609-11.697-3.864s-8.25-3.76-14.098-1.985c-1.567.523-5.222 1.567-5.222 1.567"/></g><g clip-path="url(#D)" class="g"><path d="M1682.5 227.73c9.19-3.76 27.884-16.527 27.884-16.527l-12.976 26.474s-3.838-8.276-14.908-9.947"/></g><g clip-path="url(#E)" class="g"><path d="M1893.4 350.88l.863-6.256 1.058-21.252a39.16 39.16 0 0 0-.357-7.601l-1.61-11.098a78.77 78.77 0 0 1-.736-14.996l1.219-26.519a58.69 58.69 0 0 0-1.989-18.055l-5.532-20.366-12.109 106.51.655 4.841 2.691-3.013 14.41-8.303-2.553 24.415c-.219 2.173-.024 4.381.574 6.486l.484 1.736a7.93 7.93 0 0 1-1.714 7.429l-1.023 1.139-1.783 16.617c-1.334 4.554-2.312 9.2-2.944 13.881l.391 2.863 7.463-30.21c.851-3.45 2.749-6.532 5.428-8.855l5.072-4.37-5.486-1.38c-1.633-.403-2.691-1.978-2.472-3.646"/></g><g clip-path="url(#F)" class="g"><path d="M1724.4 218.46l1.714-8.029a14.45 14.45 0 0 1 13.293-11.408l8.809-.513a185.13 185.13 0 0 1 32.164.932l7.15.833c8.668 1.01 30.539 1.035 39.26.744l12.674-.526c4.714-.285 10.022-4.139 11.478-8.632 1.462-4.512-1.452-19.317-4.54-25.675-.3-.618.452-1.208.986-.775l5.021 4.076c2.425 1.969 4.535 4.297 6.255 6.904l1.79 2.711a71.23 71.23 0 0 1 5.412 9.798l.61 1.344c1.426 3.141 2.583 6.397 3.46 9.734l3.432 13.051z"/></g><g clip-path="url(#G)" class="g"><path d="M1698.5 460.44l-5.222-1.566v-49.503l6.266-2.193z"/></g><g clip-path="url(#H)" class="g"><path d="M1683.3 325.4c10.443-3.551 13.994-11.07 13.994-11.07l-.209 25.064s-4.804-12.532-13.785-13.994"/></g></g><g class="j"><path d="M570.77 249.18l-7.797 27.153-.669 7.184a14.69 14.69 0 0 0 2.031 8.916l5.46 9.1c1.196 1.995 2.857 3.688 4.891 4.816 1.603.889 3.388 1.405 4.579.339 2.647-2.367.836-8.632.836-8.632zm-303 245.21s-19.216-5.431-25.064 9.887c-1.176 3.133-1.404 5.855-1.205 8.065.317 3.543 2.581 6.617 5.763 8.208l8.113 4.056s-.696-8.076 3.76-18.241 8.633-11.975 8.633-11.975m-24.78-28.54s-10.304-12.949-4.039-24.925c5.153-10.095 14.483-11.14 14.483-11.14s4.177-.835 10.445 2.2l2.921 1.7s-7.936 4.177-14.62 11.975-9.191 20.191-9.191 20.191"/><path d="M265.41 362.25s-5.135-4.683-12.532-3.899c-2.42.365-11.227 4.96-14.76 12.115s-4.317 27.709-4.317 27.709 3.343-10.583 11.001-19.076 20.608-16.849 20.608-16.849"/></g><path d="M314.52 55.858h179.54c21.161 0 38.317 17.155 38.317 38.317v440.78c0 21.163-17.156 38.317-38.317 38.317H316.8c-21.064 0-38.177-16.997-38.316-38.06l-2.281-441.01c-.016-21.175 17.143-38.344 38.317-38.344" class="l"/><path d="M494.81 557.75H314.08c-12.003 0-21.732-9.729-21.732-21.732V93.788c0-12.001 9.729-21.732 21.732-21.732h21.583a4.38 4.38 0 0 1 4.376 4.376v.263c0 7.204 5.843 13.043 13.047 13.039l102.36-.056a13.04 13.04 0 0 0 13.031-13.193c-.029-2.437 1.939-4.428 4.376-4.428h21.957c12.003 0 21.732 9.731 21.732 21.732v442.23c0 12.003-9.729 21.732-21.732 21.732" class="n"/><g transform="matrix(1.3333 0 0 -1.3333 -1985.1 849.03)" mask="url(#K)" stroke="#fff" class="i d e f"><g clip-path="url(#L)"><g transform="translate(1712.1 719.48)"><path d="M0 0l59.646-149.44a40.7 40.7 0 0 0 2.826-12.363l4.054-59.289c.412-6.019 1.711-11.939 3.84-17.584 16.47-43.665 57.155-85.397 90.045-130.4" stroke-width="7"/></g><g transform="translate(1826.1 413.7)"><path d="m0 0 56.395 63.444" stroke-width="7"/></g><g transform="translate(1791.1 462.68)" class="k"><path d="M0 0l50.013 54.022a2.93 2.93 0 0 0 4.252.05l8.871-9.139c1.806-1.861 3.06-4.186 3.623-6.718l.81-3.647L91.798 15.77"/></g><g transform="translate(1805.5 440.85)" class="k"><path d="m0 0 53.157 56.395"/></g><g transform="translate(1705.8 576.61)"><path d="m0 0 49.189-179.84" stroke-width="4"/></g><g transform="translate(1799.2 447.53)" class="k"><path d="M0 0l3.432-7.759c5.892-13.321-.947-28.823-14.757-33.453L-94.931-69.24"/></g><g transform="translate(1707.4 656.55)" class="o"><path d="M0 0l34.735 19.692c3.353 1.901 6.424 4.263 9.122 7.015l26.95 27.495"/></g><g transform="translate(1710.2 722.61)" class="k"><path d="M0 0l80.206-83.026 7.174-6.985a6.02 6.02 0 0 0-.293-8.892l-2.252-1.921a2.51 2.51 0 0 1 .833-4.283l38.087-12.695c15.665-4.543 47.622-38.85 47.622-38.85"/></g><g transform="translate(1751.2 625.8)" class="o"><path d="m0 0 80.206 80.832"/></g><g transform="translate(1878.8 617.66)" class="o"><path d="m0 0-112.9 101.61"/></g><g transform="translate(1882.2 680.63)" class="k"><path d="m0 0-30.704-37.91"/></g><g transform="translate(1776.3 534.94)" class="k"><path d="M0 0s31.324 9.501 45.791 19.319 33.945 35.822 33.945 35.822"/></g></g></g><path d="M425.12 151.51c0 13.228-23.951 45.116-23.951 45.116s-23.949-31.888-23.949-45.116 10.723-23.951 23.949-23.951 23.951 10.723 23.951 23.951" class="j"/><path d="M418.99 151.51c0 9.844-7.98 17.824-17.824 17.824s-17.823-7.98-17.823-17.824 7.98-17.824 17.823-17.824 17.824 7.98 17.824 17.824m-45.97 73.85c-7.716 0-13.995-6.277-13.995-13.993s6.279-13.995 13.995-13.995 13.993 6.279 13.993 13.995-6.277 13.993-13.993 13.993" class="h"/><path d="M373.02 195.37c-8.819 0-15.993 7.175-15.993 15.993s7.175 15.993 15.993 15.993 15.993-7.175 15.993-15.993-7.175-15.993-15.993-15.993m0 4c6.624 0 11.993 5.369 11.993 11.993s-5.369 11.993-11.993 11.993-11.993-5.369-11.993-11.993 5.369-11.993 11.993-11.993m8.35 12c0 4.613-3.74 8.352-8.352 8.352s-8.352-3.739-8.352-8.352 3.739-8.352 8.352-8.352 8.352 3.739 8.352 8.352" class="j"/><path d="M285.83 256.42h235.6V562.2h-235.6z" class="h"/><path d="M516.55 536.02c0 12.007-9.736 21.727-21.743 21.727h-180.72c-12.007 0-21.743-9.72-21.743-21.727V93.79c0-12.007 9.736-21.728 21.743-21.728h21.573c2.423 0 4.387 1.963 4.387 4.371v.26c0 7.207 5.841 13.049 13.032 13.049l102.37-.063c7.253 0 13.125-5.933 13.035-13.185v-.061a4.37 4.37 0 0 1 4.369-4.371h21.957c12.007 0 21.743 9.721 21.743 21.728zM494.057 55.86h-179.54c-21.176 0-38.333 17.173-38.319 38.348l2.285 441.02c.137 21.053 17.249 38.057 38.317 38.057h177.25c21.16 0 38.317-17.159 38.317-38.319V94.176c0-21.16-17.157-38.317-38.317-38.317" fill="#3c3c3b"/><path d="M314.31 285.66h140.36m-140.36 27.61h99.84" stroke="#575756" stroke-width="16" class="d e f i"/><path d="M490.27 454.14H315.43c-4.184 0-7.575-3.392-7.575-7.576v-29.78c0-4.184 3.391-7.576 7.575-7.576h174.84a7.58 7.58 0 0 1 7.576 7.576v29.78a7.58 7.58 0 0 1-7.576 7.576" class="n"/><g class="i d f"><g stroke="#009d5e" stroke-width="5.333"><use xlink:href="#R"/><use xlink:href="#R" y="-64.56"/><path d="M490.54 520.02H315.7c-4.184 0-7.575-3.392-7.575-7.576v-29.78c0-4.184 3.391-7.576 7.575-7.576h174.84a7.58 7.58 0 0 1 7.576 7.576v29.78a7.58 7.58 0 0 1-7.576 7.576z"/></g><g class="e m"><path d="M371.47 367.11h66.983M382.97 497.55h39.757" stroke="#575756"/><path d="m383.24 431.67h39.757" stroke="#fff"/></g></g><g clip-path="url(#M)" transform="matrix(1.3333 0 0 -1.3333 -1985.1 849.03)" class="g l"><path d="M1760.6 180.68c-.345-.644.264-1.38.966-1.173 0 0 17.859 8.982 27.577 7.625 9.706-1.357 16.836-6.854 17.227-11.075a163.06 163.06 0 0 0 .356-4.657c.23-3.462-1.449-6.785-4.358-8.671l-19.527-12.662c-.115-.08-.219-.172-.288-.299l-20.654-34.764-.034-.069c-.598-1.242-21.034-43.114-31.521-57.926-4.417-6.233-15.249-11.316-29.452-22.356-20.068-15.605-35.293-30.705-44.494-36.754-9.188-6.06-16.652-5.957-23.184-8.981-6.52-3.036-11.063-7.947-13.363-12.121s-9.188-22.552-11.902-27.773c-2.461-4.738-16.583-23.011-19.217-26.404a.89.89 0 0 0-1.058-.276l-141.61 58.765c-.495.207-.714.805-.461 1.277 4.141 7.728 34.052 63.825 39.008 78.694 5.325 15.974 9.396 45.115 16.285 60.778 6.9 15.663 23.816 43.24 25.69 48.875 1.886 5.646 14.041 37.689 21.516 45.958 8.763 9.717 26.842 12.968 26.842 12.968s18.204 1.368 25.196-5.842c.288-.299.736-.391 1.105-.184 3.346 1.874 18.135 7.406 23.701 9.131 7.532 2.047 14.018 1.253 19.343-2.185 2.599-1.679 4.738-3.657 6.532-5.75 1.495-1.748 2.737-3.588 3.818-5.417a.9.9 0 0 1 1.552-.011l3.22 5.462c2.209 3.657 4.899 7.763 6.912 9.154 4.071 2.829 12.949 4.807 22.977 1.047s13.076-6.256 16.813-11.799c2.978-4.405.816-15.962-.184-20.493-.253-1.104.287-2.22 1.299-2.726 0 0 2.289-1.989 4.29-1.851a.9.9 0 0 1 .253.034c8.291 2.404 36.248 59.95 41.135 67.747 4.899 7.82 19.424 54.05 26.922 60.961.034.023.057.035.08.069 1.312 1.61 5.75 9.35 18.216 7.165 12.558-2.197 13.099-25.346 11.385-31.119-1.471-7.729-15.019-56.5-21.562-69.966-5.716-11.799-23.242-44.575-27.347-52.406"/></g><path d="M359.32 602c-.46.859.352 1.84 1.288 1.564 0 0 23.812-11.976 36.769-10.167 12.941 1.809 22.448 9.139 22.969 14.767.184 1.916.337 4.124.475 6.209v.169c.245 4.553-1.977 8.908-5.811 11.392l-26.036 16.883c-.153.107-.292.229-.384.399l-.951 1.595-26.588 44.757-.045.092c-.797 1.657-28.045 57.485-42.028 77.235-5.888 8.311-20.332 15.088-39.269 29.808-26.757 20.807-47.057 40.94-59.325 49.005-12.251 8.08-22.203 7.943-30.911 11.975-8.695 4.048-14.751 10.596-17.819 16.161s-12.251 30.069-15.869 37.031c-3.281 6.317-22.111 30.681-25.623 35.205a1.19 1.19 0 0 1-1.411.368l-237.58-29.063c5.52-10.304 93.556-136.09 100.16-155.92 7.1-21.299 12.528-60.153 21.713-81.037 9.2-20.884 31.755-57.653 34.253-65.167 2.516-7.528 20.953-47.879 30.92-58.903 11.683-12.957 30.076-19.139 33.557-19.665s22.923-1.717 32.768 7.023c.291.231.567.491.827.767.384.4.981.521 1.473.245.597-.337 1.472-.751 2.544-1.241 6.963-3.144 22.632-8.94 29.057-10.933 10.043-2.729 18.692-1.671 25.791 2.913 3.465 2.239 6.317 4.876 8.709 7.667 1.993 2.331 3.649 4.784 5.091 7.223a1.2 1.2 0 0 0 2.069.015l4.293-7.283c2.945-4.876 6.532-10.351 9.216-12.205 5.428-3.772 17.265-6.409 30.636-1.396s17.435 8.341 22.417 15.732c3.971 5.873 1.088 21.283-.245 27.324a1.17 1.17 0 0 0-.045.323c0 .015-.016.045-.016.061-.153 1.333.567 2.637 1.793 3.251 0 0 3.052 2.652 5.72 2.468a1.2 1.2 0 0 0 .337-.045c1.947-.568 4.692-3.389 7.943-7.728 15.241-20.363 41.537-74.029 46.904-82.601 6.532-10.427 26.451-70.18 35.896-81.281.045-.031.076-.047.107-.092 1.749-2.147 7.744-13.309 24.104-9.169 19.841 5.013 17.649 33.411 15.364 41.108-1.961 10.304-20.024 75.333-28.749 93.288-7.621 15.733-30.989 59.433-36.463 69.875" fill="#af8260"/><path d="M401.83 434.87c-8.251-3.203-13.333-7.484-14.795-9.887s-3.412-7.449-.14-13.507 6.476-10.339 6.476-10.339 4.113-4.064 15.352-1.359c11.279 2.716 14.099 15.457 14.099 15.457s-1.428 11.836-4.073 15.769-8.668 7.067-16.919 3.864" class="j"/><g transform="matrix(1.3333 0 0 -1.3333 -1985.1 849.03)" class="l"><g clip-path="url(#N)" class="g"><path d="M1655.8 222.43c-1.152-2.3-2.719-4.388-5.643-7.313s-11.493-6.367-10.234-4.595c.629.886 4.282 4.478 6.266 8.982s2.355 9.918 2.355 9.918c1.495-1.748 2.737-3.588 3.818-5.416a.9.9 0 0 1 1.552-.012l3.22 5.463s-.182-4.727-1.334-7.027"/></g><g clip-path="url(#O)" class="g"><path d="M1600.9 229.16s-3.347-3.542-6.9-4.795-8.303-1.829-8.303-1.829l7.441 3.473c2.035.943 3.84 2.726 4.082 2.978.218-.172.425-.368.621-.575.288-.299.736-.39 1.104-.183.448.252 1.104.563 1.909.931z"/></g><g clip-path="url(#P)" class="g"><path d="M1758.3 185.28l-19.186-40.34c-3.237-7.832-5.43-14.934-7.31-24.437s-11.383-33.837-11.383-33.837l-4.073-9.713s9.242 16.867 11.644 23.133c4.438 8.929 8.825 29.085 11.749 37.022s15.143 33.21 15.143 33.21l8.146 15.352z"/></g></g><path d="M420.82 614.54a12.78 12.78 0 0 1-5.812 11.392l-26.035 16.883c-.153.107-.292.229-.384.399 0 0-.705-2.04-.967-3.451-.413-2.223-1.809-12.113-.689-16.851 1.104-4.723 10.58-14.061 10.58-14.061s7.652-.828 15.18 1.257c6.363 1.764 7.836 3.849 8.127 4.432" class="j"/><g clip-path="url(#Q)" transform="matrix(1.3333 0 0 -1.3333 -1985.1 849.03)" class="g l"><path d="M1715.4 208.62c-.563-.932-2.093-3.324-3.623-4.934l-5.956-6.739c-2.818-3.289-5.635-3.128-5.635-3.128s-.575 2.852 1.402 7.36c.863 1.955 1.507 4.094 1.967 5.9-.115-1.001.425-1.978 1.345-2.438 0 0 2.289-1.99 4.29-1.852.092 0 .173.012.253.035 1.461.425 3.519 2.541 5.957 5.796"/></g></svg>