<svg xmlns="http://www.w3.org/2000/svg" xmlns:xlink="http://www.w3.org/1999/xlink" width="755.9" height="755.91" xmlns:v="https://vecta.io/nano"><style><![CDATA[.V{opacity:.2}.W{opacity:.1}.X{fill:#1d1d1b}.Y{fill:#009d5e}.Z{fill:#007143}.a{fill:#936848}.b{fill:#3c3c3b}.c{fill:#af8260}.d{fill:#6b4a32}.e{stroke-linecap:round}.f{stroke-miterlimit:10}.g{stroke-width:1.333}]]></style><path d="M556.52 146.87c0 23.413-18.973 42.373-42.387 42.373h-279.57c-31.493 0-57.027-25.533-57.027-57.027a56.93 56.93 0 0 1 6.973-27.36c5.933-10.84 15.28-19.547 26.6-24.64 7.12-3.24 15.04-5.04 23.36-5.053 9.64-38.48 43.573-67.293 84.547-69.24 1.453-.067 2.933-.107 4.413-.107 38.32 0 71.133 23.48 84.867 56.827a66.41 66.41 0 0 1 28.707-6.493c31.12 0 57.267 21.36 64.533 50.227 3.987-1.227 8.213-1.893 12.6-1.893 23.413 0 42.387 18.987 42.387 42.387" class="Y"/><g class="Z"><path d="M270.88 360.01c-1.688-7.324-2.944-14.747-4.011-22.193-1.056-7.449-1.86-14.94-2.395-22.456-1.032-15.028-1.139-30.172.297-45.251 1.393-15.068 4.304-30.099 9.436-44.527 2.636-7.18 5.764-14.219 9.605-20.916 3.913-6.652 8.471-12.953 13.663-18.757 1.272-1.421 3.457-1.544 4.88-.271s1.544 3.457.271 4.88c-.025.028-.052.056-.079.084l-.064.068c-5.033 5.219-9.543 10.963-13.493 17.119-3.881 6.204-7.133 12.817-9.94 19.636-5.479 13.711-8.908 28.292-10.845 43.072-1.984 14.788-2.459 29.797-2.005 44.772.244 7.491.759 14.977 1.527 22.443.779 7.463 1.748 14.916 3.153 22.297"/><path d="M301.2 199.9l21.147-29.027-32.831 14.563zM173.65 354.31c-4.501-8.579-8.536-17.401-12.337-26.32-3.788-8.925-7.283-17.983-10.449-27.16-6.324-18.349-11.4-37.199-14.38-56.487-2.919-19.255-3.761-39.096-.255-58.608 1.784-9.723 4.685-19.336 9.1-28.329 4.328-9.031 10.268-17.323 17.323-24.517 1.379-1.405 3.636-1.427 5.041-.048s1.427 3.635.048 5.04l-.064.064-.04.039c-6.7 6.435-12.436 13.915-16.743 22.237-4.387 8.279-7.427 17.293-9.423 26.555-3.94 18.585-3.76 38.023-1.459 57.083 2.353 19.1 6.809 37.965 12.544 56.416 2.871 9.229 6.076 18.361 9.581 27.38 3.519 9.013 7.277 17.944 11.512 26.656"/><path d="M165.85 147.04l22.348-28.112-33.415 13.169zm442.61 213.8c4.735-9.532 8.728-19.409 12.316-29.409 3.561-10.012 6.611-20.201 9.065-30.52 4.861-20.613 7.437-41.904 5.652-62.891-.86-10.479-2.972-20.821-6.368-30.681-3.471-9.828-8.291-19.159-14.547-27.42-6.207-8.297-13.755-15.528-22.141-21.597-8.381-6.092-17.624-10.971-27.205-15l-.036-.015c-1.833-.772-2.695-2.883-1.924-4.715s2.883-2.695 4.716-1.924l.092.04c9.901 4.495 19.465 9.889 28.127 16.565 8.665 6.651 16.437 14.529 22.737 23.465 6.351 8.903 11.129 18.848 14.451 29.176 3.245 10.361 5.109 21.093 5.691 31.847.607 10.756.115 21.525-1.248 32.148-1.351 10.628-3.483 21.129-6.251 31.441s-6.113 20.457-9.968 30.393c-3.879 9.923-8.156 19.699-13.159 29.096"/><path d="M575.61 133.57l-35.815-2.664 29.685 20.219zm-45.62 207.66c.959-7.48 1.243-15.028 1.151-22.549-.109-7.524-.632-15.036-1.595-22.481s-2.369-14.825-4.232-22.075-4.163-14.379-7.044-21.259c-2.884-6.872-6.121-13.597-10.02-19.924-.892-1.629-2.005-3.124-2.996-4.691-1.012-1.553-2.021-3.108-3.159-4.573l-3.315-4.457-3.559-4.261c-1.148-1.449-2.444-2.773-3.709-4.12-1.288-1.325-2.484-2.736-3.843-3.989-2.699-2.523-5.321-5.12-8.227-7.405-5.589-4.821-11.771-8.892-17.999-12.811l-.131-.083a3.46 3.46 0 0 1-1.084-4.769 3.46 3.46 0 0 1 4.769-1.085 4.74 4.74 0 0 1 .108.071c6.371 4.348 12.652 8.852 18.303 14.108 2.935 2.5 5.576 5.315 8.28 8.049 1.361 1.359 2.557 2.876 3.843 4.305 1.261 1.451 2.551 2.876 3.691 4.428l3.519 4.563 3.259 4.747c1.117 1.56 2.101 3.207 3.085 4.852.963 1.657 2.045 3.241 2.904 4.956 3.765 6.672 6.825 13.703 9.503 20.836 2.673 7.144 4.74 14.491 6.344 21.916a185.04 185.04 0 0 1 3.427 22.483c.685 7.545.921 15.12.741 22.676-.195 7.552-.771 15.104-2.015 22.544"/><path d="m473.06 178.62-35.064-7.7653 26.484 24.261z"/></g><g class="X"><g class="W"><path d="M440.27 56.198s-17.92 2.028-31.965 15.589-17.678 31.754-17.678 31.754-4.965-12.108 4.601-27.97 26.879-17.678 26.879-17.678c7.582-1.589 10.17-1.816 18.162-1.695"/></g><g class="W"><path d="M319.01 5.926c-11.773 3.427-35.186 12-53.092 29.573-16.6 16.266-22.434 48.911-22.434 48.911-8.946-3.96-17.708-4.723-26.789-2.725-8.736 1.923-23.702 11.442-23.702 11.442 16.437-16.528 33.153-17.949 41.472-17.962 9.64-38.479 43.572-67.292 84.545-69.238"/></g><g class="W"><path d="M519.55 104.75s-9.941-1.371-18.616 1.907c-14.985 7.084-18.254 23.974-18.254 23.974s8.028-11.482 17.164-18.253c7.908-5.861 18.117-7.602 19.706-7.628"/></g><g class="V"><path d="M391.17 740.6c0 4.529-28.406 8.201-63.445 8.201s-63.445-3.672-63.445-8.201 28.405-8.201 63.445-8.201 63.445 3.672 63.445 8.201"/></g></g><path d="M314.67 739.28l-.677-10.749-10.837-.972-7.607 1.593-2.977 2.004c-5.164 3.769-15.832 1.016-18.203 3.556-1.101 1.355-1.101 4.653-1.101 4.653l29.719.423h5.335" class="Y"/><path d="M272.68 739.09v2.427l30.48.343c5.752 0 11.829-.448 11.829-.448l.192-2.429c.02-.256-.301-.465-.691-.447-1.936.092-6.12.412-11.217.412-4.949 0-28.191-.144-29.868-.28-.388-.031-.725.168-.725.423" class="Z"/><path d="M353.54 739.18l.556-9.793 11.127-5.257 7.449 6.829 2.591 1.832a6.12 6.12 0 0 1 2.013 3.06l.271 3.181-12.096 1.484z" class="Y"/><path d="M378.18 738.99v2.427s-5.873.509-11.625.509-13.279-.393-13.279-.393l-.029-2.399c-.02-.256.301-.465.692-.447 1.936.092 7.407.328 12.504.328a143.23 143.23 0 0 0 11.012-.448c.388-.031.725.168.725.423m-3.43-10.36c.053 1.027-.907 1.787-1.893 1.52-6.56-1.8-11.44-2.04-17.147-.24a20.13 20.13 0 0 0-1.067.36c-.947.32-1.933-.32-2-1.307-1.747-26.693-8.507-61.293-8.507-61.293s-2.107-38.28-7.613-49.493c0-.013-.013-.027-.013-.04h-3.04l-10.92 50.04-7.787 60.747a1.51 1.51 0 0 1-1.853 1.267c-4.627-1.133-8.027-1.627-12.547-1.16-1.68.187-3.507.493-5.613.96-.947.213-1.853-.52-1.827-1.493l2.013-63.96 8.307-76.533.76-6.947s20.453 7.133 32.04 7.28c11.587.16 28.92-3.72 28.92-3.72l.453 5.653.613 7.76 5.533 69.893 3.187 60.707" class="Z"/><g class="X"><g class="V"><path d="M362.64 602.79c-1.693 1.257-3.333 2.729-5.232 3.688-4.495 2.063-9.858-2.113-8.974-6.976.429-2.079 1.667-3.985 2.565-5.884.097-.188.397-.065.331.137-.46 1.448-1.017 3.036-1.549 4.467-1.661 4.387 2.839 8.958 7.241 7.273 1.795-.752 3.616-2.111 5.431-2.992.173-.1.351.165.188.287"/></g><g class="V"><path d="M304.99 602.5c1.813.881 3.636 2.24 5.431 2.992 4.403 1.685 8.902-2.887 7.241-7.273a97.2 97.2 0 0 1-1.549-4.467c-.071-.199.237-.329.331-.137.899 1.897 2.136 3.807 2.565 5.884.964 5.681-5.928 9.749-10.418 6.124-1.243-.891-2.599-1.884-3.788-2.836-.157-.125.009-.384.188-.287"/></g></g><path d="M348.18 487.25l-2.52 13.04-27.001-1.407-1.212-7.34 1.773-2.133 1.467-1.747-.4-7.627-.013-.307-.187-3.493 12.36 1.027 7.627-2.88.707 4.253.093.547.627 3.747.293 1.8c.093.507.453.907.947 1.04l5.293 1.44zm-72.44-94.45l-1.276 4.011-2.387 4.108-11.699-15.083s-2.731-.793-3.699 1.128 1.211 3.644 1.211 3.644-2.497-.391-3.021 1.547 1.815 3.143 1.815 3.143-2.815-.587-3.513 1.413 2.225 3.493 2.225 3.493-2.796-.572-3.241 1.46c-.32 1.465 1.141 2.453 1.983 2.892a1.5 1.5 0 0 1 .745.937l1.341 4.843a3.16 3.16 0 0 1 .048 1.493l-.591 4.657 13.956 3.227 1.249-5.588.848-1.159c2.137-2.317 5.48-6.881 5.82-8.557s.821-8.984.821-8.984a3.82 3.82 0 0 0-.965-2.904l-.061-.068a.95.95 0 0 0-1.609.347m144.97 187.36l-3.367-1.128-3.067-2.064-6.467 9.539 1.631 1.236s1.777 2.267 3.436 3.557 3.385 1.735 4.468 2.404 4.192 3.876 4.192 3.876 1.236 4.871 1.941 5.664 1.588.863 2.293.235-.099-5.155-.099-5.155l1.711 4.777c.441.745 1.031 1.908 2.099 1.715s1.043-2.564 1.043-2.564.587 1.549 1.941 1.401c2.055-.223.843-6.403.843-6.403s.868.675 1.613.121c.733-.544.344-3.079-.519-5.903-.596-1.951-3.08-4.131-5.295-5.911l-8.399-5.399" class="a"/><g class="X"><g class="V"><path d="M427.61 588.55c1.456.744 2.663 1.805 3.795 2.957l1.959 5.473c.084.244-.292.396-.396.157l-2.179-5.04c-1.269-.957-2.469-1.983-3.392-3.303-.1-.135.067-.327.213-.245"/></g><g class="V"><path d="M416.29 588c1.779.812 4.001 1.053 5.804 1.985 1.672 1.285 2.544 3.421 3.692 5.152.535 1.08 2.285 2.263 2.713.561.155-2.312-1.696-4.299-2.517-6.437-.123-.233.24-.431.372-.205 1.068 2.132 4.701 5.945 2.244 8.122-1.388.968-3.023-.404-3.661-1.544-.967-1.432-2.007-3.808-3.281-4.897-1.797-1.073-3.852-1.303-5.612-2.525-.065-.053-.076-.149-.023-.216.076-.092.187-.053.269.004"/></g><g class="V"><path d="M425.51 598.38c-.735-.955-1.097-2.057-1.368-3.201l.095.157-1.981-2.409c-.269-1.26 2.344 1.636 2.641 1.867.525 1.096.917 2.24.921 3.483.004.159-.215.231-.308.104"/></g><g class="V"><path d="M430.36 602.28c-.701-1.625-1.185-3.999-1.315-5.411-.068-.296-.479-1.517.203-1.167.64.623.769 1.464.936 2.293.315 1.389.516 2.783.496 4.221a.17.17 0 0 1-.32.063"/></g><g class="W"><path d="M298.23 673.46l2.143 55.575c-1.68.187-3.507.493-5.613.96-.947.213-1.853-.52-1.827-1.493l2.013-63.958 8.566-78.886 6.087 2.008-10.481 69.75c-.797 5.309-1.095 10.681-.888 16.045"/></g><g class="W"><path d="M366.04 598.03l-.053.427-1.48-3.227a2.95 2.95 0 0 0-2.293-1.68l-3.333-.427 2.16-1.787 4.387-1.067z"/></g></g><path d="M416.61 577.58l-7.64 10.52-.093.12c-11.893-7.853-23.013-18.987-31.04-26.467-5.547-10.84-10.493-19.307-12.867-29.12l.427 7.693a986.89 986.89 0 0 1 .933 49.267c-.013.733-.6 1.373-1.32 1.6-18.867 6.12-39.173 2.907-59.027-4.333-.947-.333-1.88-.693-2.827-1.053-.893-.347-1.653-1.147-1.64-2.107.12-11.093.12-37.96-4.267-67.547 0-.04-.013-.08-.013-.12-12.133-13.36-18.96-19.52-26.16-28.573-4.173-5.227-8.453-11.427-13.973-20.533-2.6-24.013-2.32-32.08-1.88-53.12h.08l16.173 1.187c2.907 15.76 3.893 25.747 5.853 42.907l.573 4.96c1.013.507 2.547 1.413 4.333 2.627 5.173 3.48 12.48 9.413 15.613 14.827 1.573.467 3.12.96 4.613 1.507 5.213 1.867 9.76 4.267 13.04 7.987 1.867-.28 3.6-.427 3.6-.427a.89.89 0 0 0 .12.027c.707.16 2.037 10.2 11.839 8.747s16.228-10.4 16.975-10.947c.12-.08.173-.133.173-.133 11.64 2.627 17.44 2.88 27.253 13.72 6.827 8.373 13.64 26.387 16.107 40.613a62.41 62.41 0 0 1 .573 3.84c.693.64 1.413 1.36 2.173 2.16h.013c7.493 7.893 17.733 22.667 22.28 30.173" class="Y"/><g class="W X"><path d="M340.88 479.18l.627 3.747-7.24 2.64c-1.36.493-2.573 1.293-3.573 2.333l-2.027 2.107a6.8 6.8 0 0 1-1.12.947c-1.16.813-2.547 1.253-3.973 1.267-1.173.013-2.587 0-4.053-.04-2.227-.067-4.6-.213-6.493-.533-5.067-.853-6.933-.373-9.906-2.787-1.213-.987-1.88-2.24-2.24-3.36a3.02 3.02 0 0 1 1.587-3.68c5.213 1.867 9.76 4.267 13.04 7.986 1.867-.28 3.6-.427 3.6-.427a.88.88 0 0 0 .12.027l1.467-1.747-.4-7.626c-.227-.093-.44-.173-.653-.28l.64-.027 20.506-1.093 1.107-.053a18.45 18.45 0 0 1-1.013.6"/></g><path d="M348.18 473.18c-1.053 1.267-3.253 3.48-6.293 5.4l-1.013.6c-3.427 1.96-7.76 3.413-12.613 2.813-3.267-.4-5.867-1.107-7.973-1.96-.227-.093-.44-.173-.653-.28-3.853-1.693-5.867-3.893-7.027-5.44-3.16-3.587.307-13.027 1.627-19.613.533-2.72 1.067-7.48 3.653-10.373 2.6-2.893 11.747-2.893 11.747-2.893s14.705-1.68 18.825 4.867c4.12 6.56 2.015 24.133-.279 26.88" class="a"/><path d="M325.6 445.67c3.943-.092 8.125.361 11.063 1.429s4.328 3.017 5.515 5.493-2.873 9.321-.763 10.713c1.911 1.463 2.537-3.34 3.923-4.265 1.141-.761 2.804.305 3.188 2.18 1.621 5.931-8.624 13.372-3.384 14.303 2.313.361 3.267-.317 4.956-2.908s6.413-10.393 4.135-19.699-13.793-12.757-20.204-13.869c-6.565-1.137-11.225-.931-13.673.068s-6.989 4.093-4.171 5.635 5.473 1.012 9.416.92" class="Y"/><g class="X"><use xlink:href="#A"/><use xlink:href="#A" x="13.29" y="3.51"/></g><path d="M316.73 468.24s-1.508 6.171 4.409 7.961 10.375-3.927 10.375-3.927z" fill="#fff"/><g class="X"><g class="W"><path d="M305.98 586.86l-2.827-1.053c-.893-.347-1.653-1.147-1.64-2.107.12-11.093.12-37.959-4.267-67.545 1.973 1.493 4.32 3.68 4.987 5.973 1.24 4.187 1.267 11.986.907 15.08-.36 3.08 1.653 21.879 1.973 24.319l1.667 12.36c.627 4.693 1.293 9.093-.8 12.973"/></g><g class="W"><path d="M271.07 487.46c-4.173-5.227-8.453-11.426-13.973-20.533-2.6-24.013-2.32-32.079-1.88-53.119h.08l1.587 7.666a126.73 126.73 0 0 1 1.907 12.266l3.027 28.439a29.82 29.82 0 0 0 2.16 8.426z"/></g><g class="W"><path d="M408.97 588.1l-.093.12c-11.893-7.853-23.013-18.986-31.039-26.466-5.547-10.84-10.493-19.306-12.866-29.119l.427 7.693c-2.067-2.093-4.933-3.2-7.88-3.053l-7.866.4 7.053-2.867a15.16 15.16 0 0 0 7.146-5.987l1.12-1.787.107 5.813 14.066 26.426c1.6 2.76 3.72 5.173 6.24 7.133l17.413 13.44a19.29 19.29 0 0 1 6.173 8.253"/></g><g class="W"><path d="M282.24 465.49l-3.453-.827a6.98 6.98 0 0 0-3.88.187l-2.107.707 1.92-2.013a8.85 8.85 0 0 0 2.133-3.787l.48-1.853.573 4.96c1.013.507 2.547 1.413 4.333 2.627"/></g><g class="W"><path d="M355.71 729.91l-1.067.36c-.947.32-1.933-.32-2-1.307-1.747-26.693-8.506-61.292-8.506-61.292s-2.107-38.279-7.613-49.492l1.68-1.227 11.506 52.839z"/></g><g class="W"><path d="M394.32 547.41l-2.133-.213a6.56 6.56 0 0 0-2.44.227l-1.173.333 1.44-1.893a5.09 5.09 0 0 0 .987-2.227l.453-2.493.12.267.573 3.84 2.173 2.16"/></g><g class="V"><path d="M326.63 460.12c-1.313 1.351-3.104 2.684-4.496 3.789-.072.108-.06.28.005.405.291.371 1.249.587 1.747 1.083.072.059.081.164.023.235-.812.237-2.319.233-2.857-.551-.657-.755-.231-2.101.575-2.493l.511-.339c1.361-.904 2.771-1.739 4.261-2.457.199-.103.396.176.232.328"/></g><g class="V"><path d="M332.9 616.04c-1.74-2.273-3.672-4.715-3.596-7.762.193-4.688.495-9.302.953-13.97.031-.383.636-.364.633.029.04 3.729-.04 7.454-.18 11.176l-.092 2.76c-.012 1.791.571 3.391 1.54 4.928a66.1 66.1 0 0 1 1.356 2.448.37.37 0 0 1-.153.495c-.16.084-.355.037-.461-.103"/></g></g><path d="M266.65 373.99l11.164 3.508c1.316.413 2.047 1.815 1.633 3.131l-8.611 27.408a2.5 2.5 0 0 1-3.131 1.633l-11.023-3.463a2.5 2.5 0 0 1-1.639-3.115l8.473-27.467a2.5 2.5 0 0 1 3.132-1.636" class="b"/><path d="M268.05 408.72l-11.237-3.531c-.747-.235-1.161-1.029-.927-1.776l8.639-27.497c.235-.747 1.029-1.161 1.776-.927l1.343.421c.149.048.233.208.185.357l-.004.017a.85.85 0 0 0 .556 1.065l6.365 1.996a.85.85 0 0 0 1.068-.565c.047-.152.208-.237.359-.191l1.365.429c.747.235 1.161 1.029.927 1.776l-8.639 27.497c-.235.747-1.029 1.161-1.776.927" class="Y"/><g class="V X"><path d="M703.77 707.59c0 4.099-25.702 7.42-57.407 7.42s-57.407-3.321-57.407-7.42 25.702-7.42 57.407-7.42 57.407 3.321 57.407 7.42"/></g><path d="M634.56 706.4l-.613-9.725-9.805-.88-6.883 1.441-2.693 1.813c-4.673 3.409-14.327.919-16.472 3.217-.996 1.225-.996 4.209-.996 4.209l26.891.384h4.827" class="Z"/><path d="M596.56 706.23v2.196l27.58.309c5.204 0 10.703-.405 10.703-.405l.173-2.197c.019-.232-.272-.421-.625-.404-1.752.083-5.537.372-10.149.372-4.477 0-25.507-.129-27.025-.253-.351-.028-.656.152-.656.383" class="Y"/><path d="M669.72 706.31l.504-8.861 10.067-4.756 6.741 6.179 2.343 1.657c.876.716 1.512 1.681 1.823 2.768l.244 2.879-10.944 1.343z" class="Z"/><path d="M692.01 706.14v2.196s-5.315.461-10.519.461-12.016-.356-12.016-.356l-.025-2.172c-.019-.231.272-.42.625-.404 1.752.084 6.701.297 11.315.297a129.13 129.13 0 0 0 9.964-.405c.351-.028.656.152.656.383m-3.09-9.37c.048.929-.82 1.616-1.713 1.376-5.936-1.629-10.351-1.847-15.515-.217-.313.096-.639.204-.965.325-.856.289-1.749-.289-1.809-1.183-1.58-24.152-7.697-55.459-7.697-55.459s-1.905-34.637-6.888-44.784c0-.012-.012-.024-.012-.036h-2.751l-9.881 45.277-7.045 54.965c-.108.808-.893 1.339-1.677 1.147-4.185-1.025-7.263-1.472-11.352-1.051-1.52.169-3.173.447-5.08.869-.856.193-1.676-.471-1.652-1.351l1.821-57.873 7.516-69.249.688-6.285s18.507 6.455 28.991 6.588c10.484.144 26.168-3.367 26.168-3.367l.409 5.116.556 7.021 5.005 63.24 2.884 54.929" class="Y"/><path d="M664.87 478.36l-2.28 11.799-23.659-7.335-1.869-.579 1.604-1.931 1.328-1.581-.363-6.9-.012-.277-.169-3.161 11.184.929 6.901-2.607.639 3.849.085.495.567 3.389.265 1.629c.084.459.411.82.856.941l4.791 1.303zm-65.55-85.46l-1.155 3.628-2.159 3.719-10.587-13.648s-2.471-.717-3.347 1.02 1.096 3.299 1.096 3.299-2.259-.353-2.733 1.399 1.641 2.843 1.641 2.843-2.547-.529-3.179 1.28 2.013 3.161 2.013 3.161-2.529-.519-2.932 1.32c-.291 1.327 1.033 2.221 1.793 2.616a1.37 1.37 0 0 1 .675.849l1.215 4.381a2.88 2.88 0 0 1 .043 1.352l.413 2.395 11.68 4.739 1.131-5.057.767-1.047c1.935-2.097 4.959-6.227 5.265-7.744s.744-8.129.744-8.129c.088-.959-.229-1.911-.873-2.627l-.055-.063a.86.86 0 0 0-1.457.315M730.49 562.43l-3.045-1.021-2.776-1.867-5.851 8.631 1.476 1.119s1.608 2.051 3.108 3.219 3.064 1.569 4.044 2.176 3.792 3.505 3.792 3.505 1.119 4.408 1.757 5.125 1.436.78 2.075.212-.089-4.664-.089-4.664l1.548 4.324c.399.673.932 1.727 1.899 1.551s.944-2.32.944-2.32.531 1.401 1.756 1.268c1.859-.201.763-5.793.763-5.793s.785.611 1.46.109c.664-.492.311-2.785-.471-5.341-.539-1.764-2.785-3.737-4.789-5.347l-7.6-4.885" class="c"/><g class="X"><g class="V"><path d="M736.76 570c1.344.647 2.443 1.612 3.461 2.671l1.752 4.961c.084.244-.289.395-.395.157l-2.096-4.703.116.165c-1.156-.859-2.243-1.785-3.052-3.007-.095-.135.067-.321.213-.245"/></g><g class="V"><path d="M726.51 569.51c1.896.968 4.787.799 6.189 2.657a43.45 43.45 0 0 1 2.432 3.787c.316.543.84 1.087 1.332 1.235.492.129.959-.169 1.04-.709.141-2.076-1.525-3.875-2.253-5.808-.12-.233.24-.429.372-.205l2.268 3.727c.865 1.552.828 4.348-1.677 3.915-.941-.307-1.479-.956-1.932-1.655l-2.316-3.751c-.2-.277-.331-.491-.632-.669-1.627-.979-3.477-1.185-5.069-2.311-.164-.172.069-.368.247-.212"/></g><g class="V"><path d="M734.83 578.92c-.699-.848-1.027-1.847-1.261-2.888l.095.156-1.779-2.193c-.248-1.212 2.127 1.408 2.427 1.636.501.995.859 2.044.827 3.185-.001.155-.213.225-.308.104"/></g><g class="V"><path d="M739.22 582.45c-.853-1.903-1.12-4.001-1.364-5.796-.005-.125.093-.231.219-.236.777.373.868 1.391 1.047 2.144.289 1.259.464 2.519.419 3.825-.003.172-.255.22-.32.063"/></g><g class="W"><path d="M619.67 646.85l1.939 50.284c-1.521.169-3.173.447-5.08.869-.856.193-1.676-.471-1.652-1.351l1.821-57.872 7.75-71.378 11.522 3.68-4.701 2.144a4.17 4.17 0 0 0-2.392 3.173l-8.404 55.932a77.56 77.56 0 0 0-.804 14.518"/></g><g class="W"><path d="M681.03 578.6l-.048.387-1.34-2.92c-.385-.832-1.169-1.4-2.075-1.52l-3.016-.387 1.955-1.616 3.969-.965z"/></g></g><path d="M726.57 560.87l-6.569 8.188c-10.761-7.105-19.648-18.493-26.911-25.261-5.019-9.808-10.808-18.848-12.956-27.728.133 2.003.189 7.707.311 10.312.543 11.739.965 28.857.844 44.577-.012.664-.543 1.243-1.193 1.448-17.072 5.537-35.445 2.629-53.409-3.921-.856-.301-1.701-.627-2.557-.953-.809-.313-1.496-1.037-1.484-1.905.108-10.037-.051-36.589-4.02-63.36 0-.036-.013-.073-.013-.109-10.977-12.088-17.155-17.661-23.669-25.853-3.776-4.729-6.541-9.915-11.536-18.155-2.352-21.728-2.1-29.027-1.701-48.065h.073l13.113 2.096c2.631 14.26 3.305 23.817 5.079 39.344l.519 4.488c.916.459 2.304 1.279 3.92 2.376 4.681 3.149 11.864 9.315 14.7 14.213 1.423.421 3.041.347 4.392.841 4.717 1.689 8.832 3.861 11.799 7.227 1.689-.253 3.295-.373 3.367-.361.64.144 4.029.904 7.528 1.399 2.593.375 5.248.604 6.901.327 7.949-1.328 10.965-3.221 11.641-3.716.109-.072.157-.121.157-.121 10.532 2.377 13.869 3.364 22.748 13.173 6.177 7.576 13.353 24.033 15.585 36.907a57.35 57.35 0 0 1 .519 3.475 42.69 42.69 0 0 1 1.967 1.953h.012c6.78 7.143 16.732 20.375 20.845 27.167" class="c"/><path d="M617.3 469.21c.789.963 4.851 3.744 6.201 4.239 4.717 1.689 8.832 3.86 11.799 7.227l1.671-.235s3.903 9.813 15.073 7.725 12.019-9.349 12.693-9.844c.109-.072.157-.12.157-.12 10.532 2.376 13.869 3.364 22.748 13.172 2.619 3.212 10.352 13.199 12.713 20.765l-18.344 13.259c-.983-2.475-1.324-3.373-1.952-5.972l.385 6.961c.543 11.737.965 28.857.844 44.577-.012.663-.543 1.243-1.193 1.448-17.072 5.537-35.445 2.629-53.409-3.921-.856-.301-1.701-.628-2.557-.953-.808-.313-1.496-1.037-1.484-1.907.109-10.037.109-34.347-3.86-61.117 0-.036-.013-.072-.013-.108-4.241-4.672-7.767-8.371-10.872-11.623" class="Y"/><g class="W X"><path d="M658.26 471.06l.567 3.391-6.551 2.388a8.51 8.51 0 0 0-3.233 2.112l-1.833 1.905a6.19 6.19 0 0 1-1.013.857c-1.051.736-2.304 1.133-3.596 1.145a98.45 98.45 0 0 1-3.667-.036c-2.015-.06-4.163-.193-5.876-.483-4.584-.772-6.273-.337-8.964-2.521-1.097-.893-1.7-2.027-2.027-3.04a2.73 2.73 0 0 1 1.436-3.329c4.717 1.688 8.83 3.86 11.798 7.225 1.689-.253 3.293-.373 3.367-.361l1.327-1.58-.361-6.901c-.205-.084-.399-.157-.592-.253l.58-.024 18.554-.989 1-.048a17.42 17.42 0 0 1-.916.543"/></g><path d="M664.87 465.63c-.953 1.147-2.944 3.149-5.695 4.887l-.916.543c-3.101 1.773-11.413 2.545-11.413 2.545s-10.704-.084-11.753-1.484c-2.86-3.245-6.327-13.319-3.876-19.857s6.024-7.144 9.112-12.139c2.352-2.617 7.76-3.22 7.76-3.22s13.305-1.52 17.033 4.404c3.728 5.936 1.823 21.836-.252 24.321" class="c"/><path d="M639.82 439.97s6.553 3.329 13.985 2.543c2.884-.305 7.039-.364 8.112 1.877s-5.248 8.037-2.421 10.231c1.728 1.323 1.551-.949 2.805-1.787 1.032-.688 2.536.277 2.883 1.972 1.468 5.367-3.061 12.941-3.061 12.941s2.956-.287 4.484-2.631 5.803-9.404 3.741-17.824-12.48-11.543-18.281-12.548c-5.94-1.031-7.125-1.793-9.341-.889s-2.905 6.115-2.905 6.115" class="Y"/><g class="X"><use xlink:href="#B"/><use xlink:href="#B" x="12.03" y="3.18"/></g><path d="M634.82 458.8s-1.731 6.924 3.615 8.58 9.763-4.929 9.763-4.929z" fill="#fff"/><g class="X"><g class="W"><path d="M635.16 571.35l-11.024-3.812c-.808-.313-1.496-1.037-1.484-1.905.109-10.038.071-34.531-3.899-61.301 1.785 1.352 3.948 3.515 4.551 5.589 1.121 3.788 1.147 10.845.82 13.644-.325 2.788 1.496 19.798 1.785 22.005l1.508 11.184c.568 4.247 1.688 10.238 7.742 14.597"/></g><g class="W"><path d="M594.95 476.31c-3.776-4.729-6.541-9.914-11.536-18.154-2.352-21.727-2.099-29.026-1.7-48.063l1.507 6.936a114.09 114.09 0 0 1 1.725 11.1l2.739 25.733c.277 2.617-.019 7.005 1.007 9.442z"/></g><g class="W"><path d="M604.41 458.39l-3.125-.748c-1.169-.277-2.388-.217-3.509.169l-1.907.639 1.737-1.821c.917-.965 1.58-2.136 1.929-3.427l.435-1.676.519 4.488c.917.457 2.305 1.279 3.921 2.376"/></g><g class="W"><path d="M671.69 697.93l-.965.325c-.856.289-1.749-.289-1.809-1.181-1.58-24.153-7.697-55.459-7.697-55.459s-1.905-34.636-6.889-44.782l1.521-1.111 10.41 47.811z"/></g></g><g fill="#ffbf66" class="W"><path d="M705.72 533.71l-1.931-.193a5.94 5.94 0 0 0-2.208.205l-1.061.301 1.303-1.713a4.61 4.61 0 0 0 .893-2.015l.409-2.256.109.241.519 3.475 1.967 1.955"/></g><g class="V X"><path d="M643.6 452.95c-1.499.871-3.761 1.643-4.693 2.995-.117.532.464.756.968 1.004.735.276 1.748.713 2.183.159.06-.137.269-.169.304 0 .111.708-.692 1.12-1.264 1.187-1.784.387-4.556-1.201-3.217-3.249 1.615-1.692 3.521-2.019 5.6-2.477.225-.041.325.287.12.383"/></g><g class="V e f g"><path d="M625.89 589.69s4.541-.363 8.718-4.904 4.721-8.717 4.721-8.717" fill="none" stroke="#1d1d1b"/></g><g class="V e f g"><path d="M663.31 578.07s.727 4.723 5.631 8.718 8.717 4.359 8.717 4.359" fill="none" stroke="#1d1d1b"/></g><path d="M591.1 375.88l10.101 3.173a2.26 2.26 0 0 1 1.479 2.833l-7.792 24.799a2.26 2.26 0 0 1-2.833 1.479l-9.972-3.133a2.26 2.26 0 0 1-1.483-2.819l7.667-24.852a2.26 2.26 0 0 1 2.833-1.48" class="b"/><path d="M592.37 407.3l-10.168-3.195a1.28 1.28 0 0 1-.839-1.607l7.817-24.88a1.28 1.28 0 0 1 1.607-.839l1.215.381a.26.26 0 0 1 .168.324l-.004.015a.77.77 0 0 0 .503.964l5.76 1.807a.77.77 0 0 0 .967-.512c.041-.139.187-.216.324-.172l1.236.388c.675.212 1.051.932.839 1.607l-7.817 24.88a1.28 1.28 0 0 1-1.607.839" class="Y"/><g class="V X"><path d="M432.8 655.11c0 3.596 22.547 6.509 50.361 6.509s50.361-2.913 50.361-6.509-22.547-6.509-50.361-6.509-50.361 2.913-50.361 6.509"/></g><path d="M493.53 654.06l.537-8.532 8.603-.772 6.037 1.264 2.364 1.591c4.1 2.992 12.568.807 14.449 2.824.873 1.075.873 3.692.873 3.692l-23.589.336h-4.233" class="Z"/><path d="M526.86 653.91v1.927l-24.195.271c-4.565 0-9.389-.355-9.389-.355l-.153-1.928c-.016-.203.239-.369.549-.355l8.904.327 23.708-.221c.308-.025.576.132.576.335" class="Y"/><path d="M462.68 653.98l-.441-7.773-8.832-4.173-5.913 5.42-2.056 1.455a4.86 4.86 0 0 0-1.599 2.429l-.215 2.525 9.601 1.177z" class="Z"/><path d="M443.12 653.83v1.927l9.227.404c4.567 0 10.543-.312 10.543-.312l.023-1.905c.015-.203-.24-.368-.549-.353-1.537.072-5.88.26-9.925.26a113.72 113.72 0 0 1-8.741-.355c-.308-.025-.576.132-.576.335m66.198-8.101c.027.747-.667 1.307-1.4 1.147-1.613-.36-3.013-.6-4.307-.733-2.853-.293-5.12-.093-7.8.467l-1.813.413c-.667.173-1.333-.28-1.427-.96l-5.973-47.92-7.067-41.2-.027-.12-2.347.027c-4.213 8.6-7.107 40.907-7.107 40.907s-5.187 27.867-6.533 48.333c-.04.76-.8 1.24-1.533 1-.267-.107-.547-.2-.813-.28-4.373-1.373-8.12-1.187-13.147.187-.76.2-1.493-.373-1.453-1.16l2.44-47.893 4.253-52.267.467-5.947.267-3.267.08-1.067s13.293 2.973 22.173 2.853c8.893-.12 24.573-5.587 24.573-5.587l.587 5.333 6.36 57.347 1.547 50.387" class="Y"/><g class="W X"><path d="M477.78 538.75s-5.293 2.471-9.989 3.905c-3.312 1.011-6.745 1.469-8.356 1.643-.556.06-.997.489-1.073 1.043l-7.19 50.653-3.147 51c-.76.2-1.493-.373-1.453-1.16l2.44-47.892 4.253-52.265.467-5.947.267-3.267z"/></g><path d="M491.33 457.41l-1.653.507-20.747 6.44-.987-5.093-.8-4.147-.213-1.12.12-.027 4.2-1.147c.388-.107.68-.428.747-.825l.24-1.428.493-2.973.067-.427.373-2.213.187-1.173 1.373.52 4.693 1.773 8.947-.747.853-.067-.013.133-.133 2.64-.013.24-.12 2.373-.125 2.459c-.04.785.219 1.556.723 2.16l.376.448zm33.1-78.38l1.013 3.183 1.893 3.263 9.287-11.973s2.168-.629 2.936.895-.961 2.893-.961 2.893 1.983-.309 2.399 1.228-1.44 2.493-1.44 2.493 2.233-.465 2.788 1.123-1.767 2.773-1.767 2.773 2.22-.455 2.573 1.159c.255 1.163-.907 1.948-1.573 2.295-.293.153-.504.427-.592.744l-1.065 3.845c-.107.387-.203.892-.12 1.284l-.545 3.481-9.981 2.677-.992-4.436-.673-.919c-1.696-1.84-4.349-5.463-4.619-6.793s-.652-7.131-.652-7.131a3.03 3.03 0 0 1 .765-2.305l.049-.055c.388-.432 1.1-.279 1.277.276M409.36 527.76l2.672-.896 2.435-1.637 5.101 7.212-1.263 1.34s-1.411 1.8-2.728 2.824-2.687 1.377-3.547 1.909-3.327 3.076-3.327 3.076-.981 3.865-1.541 4.496-1.261.684-1.82.185.079-4.092.079-4.092l-1.359 3.793c-.351.591-.817 1.515-1.665 1.361s-.828-2.035-.828-2.035-.465 1.228-1.541 1.112c-1.631-.177-.669-5.083-.669-5.083s-.688.535-1.28.096c-.583-.432-.273-2.444.412-4.685.473-1.548 2.444-3.28 4.203-4.692l6.667-4.285" class="d"/><g class="X"><g class="V"><path d="M399.37 541.13c.311-1.496.881-2.895 1.505-4.279.931-.879 1.997-1.635 2.996-2.445.063-.048.152-.037.2.024s.037.14-.013.189l-2.659 2.46c-.492 1.429-1.032 2.833-1.828 4.131-.059.103-.229.036-.201-.08"/></g><g class="V"><path d="M405.12 534.95c-.656 1.709-2.115 3.288-2.005 5.148.055.529.567.831 1.035.7 1.019-.344 1.523-1.733 2.255-2.799.716-1.123 1.409-2.476 2.82-2.8 1.173-.481 2.631-.677 3.695-1.268.063-.04.147-.02.187.044s.021.137-.035.18c-1.509 1.033-3.381 1.084-4.801 2.192-.796 1.027-1.639 2.531-2.32 3.66-.695 1.44-2.988 2.281-3.431.181-.117-2.089 1.5-3.612 2.411-5.344.071-.112.249-.013.191.105"/></g><g class="V"><path d="M408.08 537.85c-.371.769-.945 1.359-1.568 1.916l.063-.104-1.021 2.563c-.031.072-.115.107-.187.076-.217-.417.541-2.16.665-2.823.245-.377.568-.711.891-1.024.221-.175.908-.908 1.155-.707a.12.12 0 0 1 .003.103"/></g><g class="V"><path d="M402.83 540.21c.129.316.041.56-.145.796l.017-.056-.997 4.375c-.019.076-.096.124-.172.105s-.117-.088-.107-.16l.715-4.429c.02-.415.487-.943.689-.631"/></g></g><path d="M539.8 393.57s-.467 29.4-2.533 48.467c-2.96 4.893-18.44 17.413-28.16 25.013l-7.987 6.16c.079 6.173-4.388 28.083-3.572 42.984.439 8.013 6.379 14.189 6.425 14.376.187.733-.587 1.387-1.307 1.667l-2.24.84c-15.76 5.747-31.88 8.293-46.853 3.44-.187-.067-.373-.16-.52-.28-.307-.253-.52-.613-.533-1-.093-13.787 2.347-43.253 1.08-45.213-1.187 2.387-2.08 4-2.933 5.453-1.533 2.653-2.947 4.813-5.787 10.36-.053.04-.093.093-.147.133-6.52 6.133-26.253 27.64-26.253 27.64l-6.267-6.8 19.667-25.253h.013l1.413-1.827s.053-.12.16-.347c.013-.027.027-.04.027-.067l.013-.013.68-1.507 4.613-9.947 12.027-25.533c.027-.067.067-.12.093-.173l.16-.28c.04-.067.067-.107.093-.133 6.6-6.48 8.053-4.827 16.44-6.72 0 0 2.667 1.053 9.653 2.213l.28.04c1.44.187 3.627-.013 5.773-.32 3.067-.44 6.04-1.107 6.6-1.227.067-.013.093-.027.093-.027a50.19 50.19 0 0 0 2.853.347c.08-.093.173-.187.267-.28 2.547-2.427 10.28-5.133 12.707-5.947l.733-.24 17.52-14.8 4.813-38.573z" class="d"/><path d="M503.97 530.57c.187.733-.587 1.387-1.307 1.667l-2.24.84c-15.76 5.747-31.88 8.293-46.853 3.44-.187-.067-.373-.16-.52-.28-.307-.253-.52-.613-.533-1-.093-13.787 2.347-43.253 1.08-45.213-1.24 4.52-1.88 6.133-1.88 6.133l-1.053-.68-1.227-.787-10.64-6.84-.8-.507 12.827-25.027c.027-.067.067-.12.093-.173l.16-.28c.027-.04.04-.067.067-.093 0-.013.013-.027.027-.04 6.48-6.36 8-4.88 15.973-6.613.147-.04.307-.067.467-.107 0 0 9.04 11.72 13.347 11.453 4.32-.267 9.987-10.667 9.987-10.667s.44.013 1.92.24c.08-.093.173-.187.267-.28 2.973-2.933 12.533-6.88 12.533-6.88l.173.933 3.267 17.24.187.947-6.813 5.52c-.013.013-.027.04-.053.04l-1.187.987a45.62 45.62 0 0 1 .6 3.813c.533 4.6.413 9.373.067 14.027-.613 8.187-1.947 16-1.787 21.84.267 10.08 3.72 15.813 3.853 16.347" class="Z"/><g class="W X"><path d="M489.21 445.4l-.133 2.64-.013.24-.12 2.373-6.88 1.253c-.613.107-1.12.533-1.333 1.12l-.4 1.093a5.32 5.32 0 0 1-1.707 2.333l-.92.707c-.053.04-.107.08-.16.107a7.28 7.28 0 0 1-3.573 1.413l-6.027.587-8.173.787a16.43 16.43 0 0 0-1.813.267l-6.813 1.453c0-.013.013-.027.027-.04 6.48-6.36 8-4.88 15.973-6.613l-.213-1.12.12-.027 4.2-1.147c.387-.107.68-.427.747-.827l.24-1.427.493-2.973.067-.427.373-2.213 1.56-.653.053-.027 13.586 1.053z"/></g><path d="M466.93 442.84c.836 1.005 5.217 3.224 5.492 3.372 2.72 1.556 6.468 4.1 10.32 3.624 2.593-.317 4.657-.879 6.329-1.556.18-.075.349-.137.519-.223 1.132-.497 1.901-.979 2.423-1.387a3.22 3.22 0 0 0 1.187-2.107c.407-2.921 1.8-8.889.927-13.245-.423-2.159-3.032-8.056-5.085-10.352-2.064-2.297-7.388-3.327-7.388-3.327s-12.136-.296-15.405 4.9c-3.271 5.208-1.137 18.12.683 20.3" class="d"/><path d="M484.85 421c-4.897.053-11.527 6.047-13.159 5.495 1.087 1.369 1.723 6.001.605 8.505-2.605 7.485 4.72 17.929-1.275 19.927s-11.048 2.149-11.503-7.023.795-13.765 2.603-21.152 10.949-10.127 16.039-11.008c5.211-.904 8.203-.205 10.147.588 4.359 1.089 6.084 9.172 6.084 9.172s-4.644-4.557-9.541-4.504" class="Z"/><g class="X"><use xlink:href="#C"/><use xlink:href="#C" x="-10.54" y="2.79"/></g><path d="M491.13 439.12s1.375 5.517-3.013 6.872-7.965-3.876-7.965-3.876z" fill="#fff"/><g class="X"><g class="W"><path d="M469.7 494.16s-8.597 2.512-10.05 4.237-5.048 30.375-6.595 37.842c-.307-.253-.52-.613-.533-1-.093-13.786 2.347-43.252 1.08-45.212-1.24 4.52-1.88 6.133-1.88 6.133l-1.053-.68c-1.533 2.653-2.947 4.813-5.787 10.36-.053.04-.093.093-.147.133l3.893-9.506.813-1.773 5.728-17.485 1.157 8.977a8.41 8.41 0 0 0 7.373 7.278z"/></g><g class="W"><path d="M526.61 435.46l1.52 1.6-1.236-.505a3.83 3.83 0 0 0-3.42.261l-5.317 3.191 5.92-5.093.453-3.933 4.236-33.217c-.12 7.205-2.876 36.936-2.156 37.696"/></g><g class="W"><path d="M436.26 501.85l-.933-.267c-.627-.173-1.293-.24-1.933-.173l-1.507.147 1.413-1.827.88-1.933.147.787c.12.64.387 1.24.787 1.76z"/></g><g class="V"><path d="M486.15 436.61c.537-.513 1.549-1.043 1.303-1.276-.031-.156-.46-.325-.568-.408l-1.012-.627c-.651-.465-1.455-.837-2.036-1.473-.623-.715-.767-1.541-.833-2.44-.003-.091.069-.165.16-.168.691.365 1.063 1.243 1.617 1.712.403.377 1.212.855 1.808 1.316l1.477 1.128c.628.563.449 1.712-.325 2.017-.307.085-2.003 1.029-1.591.219"/></g><g class="W"><path d="M501.83 478.35c.644 4.665.28 12.686-.235 17.257l-.909-2.103c-.243-.56-.897-.811-1.453-.56-.308.14-.625.271-.845.332-1.185.329-2.259.629-4.011.14l-3.613-.96 3.685-.761a8.1 8.1 0 0 0 6.195-5.879l.44-1.68.64-4.907z"/></g><g class="W"><path d="M502.47 473.51c-.013.013-.027.04-.053.04l.027-.227z"/></g><g class="W"><path d="M495.81 646.61l-1.813.413c-.667.173-1.333-.28-1.427-.96l-5.973-47.919-7.066-41.199c.787-.787 1.36-1.773 1.653-2.84l.253-2.307 8.96 47.825z"/></g><g class="V"><path d="M471.38 543.05c-4.569 1.788-9.304 2.977-14.158 3.664-.14.017-.268-.083-.285-.223-.015-.117.053-.227.159-.269 2.284-.908 4.627-1.584 6.985-2.199.576-.107 8.497-2.195 7.3-.973"/></g><g class="V"><path d="M486.64 541.35c4.865.632 9.588 1.867 14.174 3.601.132.052.196.2.144.332-.044.111-.157.173-.269.159-2.439-.301-4.819-.837-7.182-1.432-2.359-.615-4.7-1.299-6.976-2.232-.235-.089-.14-.465.109-.428"/></g></g><path d="M531.65 364.1l-8.861 2.784a1.98 1.98 0 0 0-1.297 2.485l6.836 21.756c.328 1.044 1.44 1.625 2.485 1.297l8.748-2.749a1.98 1.98 0 0 0 1.301-2.472l-6.727-21.803a1.98 1.98 0 0 0-2.485-1.299" class="b"/><path d="M530.53 391.67l8.92-2.803c.593-.187.921-.817.736-1.409l-6.857-21.827c-.187-.593-.817-.923-1.411-.736l-1.065.335c-.119.037-.185.164-.148.284l.004.013c.112.355-.085.733-.441.845l-5.053 1.584c-.357.113-.739-.089-.848-.448-.036-.121-.164-.189-.284-.151l-1.084.34c-.592.187-.921.817-.736 1.409l6.859 21.827c.185.593.817.923 1.409.736" class="Y"/><path d="M163.41 684.21v.667l-2.867-.053-10.92-.227h-.2l-.133-.987-7.12-53.04-.067-.267-11.4-45.12h-2.747c0 .013-.013.027-.013.04-4.96 10.107-8.667 44.253-8.667 44.253l-.147.933-8.267 53.587-.013.08-.173 1.093-8.947-.48-3.52-.187.733-54.04v-.44l2.413-62.96.56-6.987.4-5.093s15.627 3.493 26.067 3.347c10.44-.12 28.867-6.56 28.867-6.56l.68 6.267 5.307 69.267v.307z" class="a"/><path d="M165.42 626.99l-2.187.613-8.453 2.053c-2.467.467-6.747.6-9.973.627l-2.707.013-1.573-.027-9.827-45.093h-2.747c0 .013-.013.027-.013.04l-.093.587-6.747 43.96c-.013.04-.013.053-.013.053s-.707.267-1.96.587c-.773.213-1.76.427-2.92.613-1.933.32-4.347.56-7.013.453l-6.52-.507-3.733-.507-2.573-.413 4.987-62.987.56-6.987.4-5.093s15.627 3.493 26.067 3.347c10.44-.12 28.867-6.56 28.867-6.56l.68 6.267z" class="Y"/><g class="X"><g class="V"><path d="M151.13 683.78l-.213.12-1.293.693-1.4.773.12-1.947.947.187-7.12-53.039-.067-.267-1.573-.027-9.826-45.092h-.133l1.395-2.025 10.738 38.424 2.107 8.706 1.293 8.453z"/></g><g class="W"><path d="M107.81 562.65l-3.013.373c-.893.12-1.68.693-2.067 1.52l-.04 65.958-.013.467-.947 53.719-3.52-.187.733-54.039-2.573-.413 4.987-62.985.56-6.986 3.947.96z"/></g><g class="V"><path d="M78.7 695.52c0 4.081 25.594 7.389 57.167 7.389s57.167-3.308 57.167-7.389-25.594-7.389-57.167-7.389S78.7 691.439 78.7 695.52"/></g></g><path d="M185.11 693.81c.027.413-.173.6-.173.6l-26.773.387h-4.813l-5.72-.467.04-.653.547-8.307.12-1.947.947.187 1.627.293c1.747.28 4.133.587 6.32.64l3.32-.067 2.853-.267 1.547-.227 1.587 1.853 1 1.173c4.653 3.4 11.307 1.227 14.947 3.76 2.12 1.48 2.6 2.48 2.627 3.04" class="Y"/><path d="M185.47 694.16v2.187l-27.464.308c-5.183 0-10.659-.403-10.659-.403l-.173-2.189c-.017-.231.272-.419.623-.403 1.745.084 5.515.372 10.108.372l26.912-.252c.349-.029.653.149.653.38" class="Z"/><path d="M112.61 694.24l-.501-8.824s-2.821-3.527-7.671-3.213-7.628 2.905-7.628 2.905l-3.772 3.375a5.51 5.51 0 0 0-1.816 2.757l-.243 2.867 10.899 1.337z" class="Y"/><path d="M90.413 694.07v2.187s5.292.459 10.475.459 11.965-.353 11.965-.353l.025-2.163c.019-.231-.271-.419-.623-.403-1.744.083-6.673.296-11.267.296a129.89 129.89 0 0 1-9.923-.403c-.349-.029-.653.149-.653.38" class="Z"/><path d="M145.13 471.11l-3.565 8.515-21.848-.635-1.587-8.173-.693-3.587.133-.027h.013l4.76-1.307a1.18 1.18 0 0 0 .853-.933l.267-1.627.56-3.373.08-.493.64-3.827 6.867 2.6 11.147-.933-.173 3.147-.013.28-.16 3.093-.2 3.773 1.32 1.573.013.013zm53.08-79.02c-.333.173-.573.493-.667.853l-1.213 4.36a2.81 2.81 0 0 0-.067 1.2c.013.053.013.093.027.147l-.587 24.72-.027 1.227-2.347.16-10.773.76-1.053.08.08-1.187 1.267-19.48.267-4.213-.76-1.04c-1.933-2.093-4.933-6.2-5.24-7.707-.307-1.52-.747-8.107-.747-8.107a3.49 3.49 0 0 1 .867-2.613l.053-.053c.453-.493 1.253-.32 1.453.307l1.147 3.613 2.16 3.707 10.533-13.6s2.467-.707 3.333 1.027c.88 1.72-1.08 3.28-1.08 3.28s2.24-.36 2.72 1.387c.467 1.747-1.64 2.84-1.64 2.84s2.533-.533 3.16 1.267c.6 1.693-1.72 3-1.973 3.133.28-.04 2.52-.373 2.893 1.333.293 1.32-1.027 2.213-1.787 2.6M64.654 585.25c.836-.088 1.009-1.052 1.009-1.052s2.905 4.865 4.417 3.775c1.001-.721.46-2.1.46-2.1.08.089 1.436 1.577 2.247 1.083.829-.513.521-1.653.373-2.417-.159-.753-1.74-4.227-1.74-4.227s2.193 3.515 3.052 3.513c.84-.003 1.391-.588 1.393-1.541-.015-.953-2.116-4.964-2.116-4.964s.147-4.024.469-5.121 1.215-2.437 1.549-4.299c.259-1.507.203-3.483.164-4.183l.001-.019-.015-.256 10.728-20.468-5.109-4.759-6.56 3.713-9.595 20.445-1.573 2.777-2.376 8.684c-.417 2.527-.761 5.473.009 7.147 1.128 2.411 2.395 4.339 3.211 4.268" class="a"/><g class="X"><g class="V"><path d="M65.483 584.03c-.967-1.475-1.563-3.107-2.049-4.781.148-1.448.457-2.893.729-4.331.024-.116.137-.191.252-.167.105.021.176.116.171.219l-.307 4.253-.023-.203c.701 1.572 1.309 3.171 1.532 4.896a.17.17 0 0 1-.305.113"/></g><g class="V"><path d="M65.723 574.43c.775 1.913.769 4.333 2.247 5.789 1.259.837 1.669-.961 1.405-1.968-.216-1.732-1.019-3.983-.617-5.696.631-1.735 2.041-3.288 2.697-4.924a.2.2 0 0 1 .255-.124.2.2 0 0 1 .133.224c-.465 1.919-1.687 3.264-2.271 5.085-.152 1.611.525 3.623.768 5.237.527 1.869-.863 4.368-2.944 2.865-1.715-1.703-1.48-4.228-1.991-6.416-.032-.193.261-.261.317-.073"/></g><g class="V"><path d="M70.425 574.63c.364.923.333 1.861.196 2.809l-.035-.18 1.035 2.96c-.181 1.273-1.595-2.285-1.828-2.636-.143-1.001-.116-2.009.307-2.961a.18.18 0 0 1 .325.008"/></g><g class="V"><path d="M67.785 580.6c.413.131.556.393.544.761l2.396 4.396c.053.105.012.233-.093.287-.096.049-.212.019-.272-.068l-2.843-4.336c-.324-.261-.231-1.131.268-1.04"/></g></g><path d="M195.54 448.3c-4.067 6.707-6.893 13.587-10.253 17.667l-2.147 2.64c-6.48 8.16-9.2 12.027-19.787 24.573 0 .04-.013.067-.013.107-3.96 26.667-3.96 50.867-3.853 60.867.013.867-.667 1.587-1.48 1.893-.84.333-1.693.653-2.547.947-17.52 6.4-35.44 9.307-52.147 4.213-.347-.093-.68-.2-1.027-.307-.653-.2-1.187-.773-1.2-1.44-.12-15.653.307-32.707.84-44.387l.36-6.613c0-.08.013-.147.013-.2a.46.46 0 0 0 .013-.12c-.096 1.523-8.069 22.268-9.629 23.552 0 0-1.976 8.217-5.8 12.745-1.293 1.532-2.145 3.307-2.629 4.355-.116.249-.419.335-.653.193l-9.301-5.629c-.252-.152-.373-.445-.299-.729l.929-3.425c.325-4.98.908-9.672 3.315-12.577-.3-1.088.295-5.071.521-6.257 1.613-9.347 5.093-22.787 9.253-32.32 1.533-3.547 3.173-6.547 4.84-8.6 2.387-2.627 4.507-4.56 6.533-6.027 5.507-4.013 10.36-4.6 18.027-6.333 0 0 .04.053.147.12h.013c.667.493 7.239 11.787 14.125 11.787s11.195-9.653 11.835-9.8c.067-.013.107-.027.107-.027a57.35 57.35 0 0 0 3.24.387 18.98 18.98 0 0 1 2.613-2.453c2.573-2.027 5.693-3.52 9.133-4.747 1.347-.493 2.747-.933 4.16-1.36l11.053-11.693c.933-1.04 2.093-3.48 2.947-4.667l.52-4.467c1.533-12.427 1.893-4.067 4.013-15.747l.253-.013 1.16-.08 12.936-.936c.22-.016.409.167.415.388.201 9.236.491 7.432.609 8.628v.04c.107 1.16-.04 5.413-1.16 15.853" class="Z"/><g class="V X"><path d="M142.75 457.31l-.173 3.147-.013.28-.16 3.093-4.973.96a5.15 5.15 0 0 0-3.213 2.08l-.68.933a7.12 7.12 0 0 1-2.027 1.92l-1.253.773-.827.453a8.71 8.71 0 0 1-4.867.747l-6.44-.88-.467-.067c-2.32-.32-4.667-.24-6.96.213l-11.306 2.453c5.507-4.013 10.36-4.6 18.026-6.333 0 0 .04.053.147.12h.013l4.76-1.307a1.18 1.18 0 0 0 .853-.933l.267-1.627.56-3.373.08-.493.64-3.827 6.866 2.6z"/></g><path d="M120.42 455.29c3.269 5.085 17.12 6.837 21.492 6.296 2.944-.36 6.531-4.608 7.576-6.001 2.848-3.232-.816-9.98-2.005-15.915-.481-2.451-2.573-7.443-4.904-10.049-2.343-2.608-8.432-3.663-8.432-3.663s-12.073-.541-15.785 5.357c-3.712 5.911-1.211 18.889 2.059 23.975" class="a"/><path d="M137.79 429.78c-3.552-.083-7.321.325-9.968 1.288s-3.899 2.719-4.968 4.949 2.588 8.399.687 9.653c-1.723 1.317-2.287-3.009-3.536-3.843-1.028-.687-2.525.275-2.871 1.964-.22 5.811 4.019 12.168 4.019 12.168s-2.807-.057-4.329-2.392-6.885-8.875-4.832-17.259c-2.281-4.143 2.623-11.227 8.439-9.401 3.383-1.703 7.075-2.628 9.767-3.095 5.915-1.025 7.517.249 9.724 1.149s6.72 5.993 6.72 5.993-5.297-1.093-8.851-1.176" class="Z"/><g class="X"><use xlink:href="#D"/><use xlink:href="#D" x="-13.36" y="3.35"/></g><path d="M145.89 451.51s1.176 4.713-2.56 5.868-6.787-3.317-6.787-3.317z" fill="#fff"/><g class="X"><g class="W"><path d="M109.05 512.19c-.613 0-2.8 4.733-3.493 12.36-1.32 14.293-1.187 35.999-2.133 36.506-.027.013-.053.027-.093.027-.347-.093-.68-.2-1.027-.307-.653-.2-1.187-.773-1.2-1.44a898.01 898.01 0 0 1 .84-44.386l.36-6.613c0-.08.013-.147.013-.2-.337 2.517-8.185 22.154-9.592 23.414 0 0 1.059-6.491 1.299-6.908l8.08-18.573.227-3.107c.933 4.32 3.307 7.266 6.72 9.226"/></g><g class="W"><path d="M182.74 424.33l-.187 1.187c-1.4 8.586-3.493 19.093-2.893 19.72l1.733 1.813-1.893-.627c-.733-.253-2.347.933-2.347.933L166.9 460.569c-1.24 1.6-2.973 2.747-4.933 3.267l-12.466 3.267c2.573-2.027 5.693-3.52 9.133-4.747 1.347-.493 2.747-.933 4.16-1.36l11.053-11.693c.933-1.04 2.093-3.48 2.947-4.667l.52-4.467c1.533-12.426 1.893-4.067 4.013-15.746l.253-.013 1.267-19.48.147-.76.733 11.08c.107 1.6-.333 5.053-.987 9.08"/></g><g class="W"><path d="M79.503 525.4l1.855 2-1.869.82a3.25 3.25 0 0 0-1.795 2.027l-3.148 13.248s-.317-.103-.521-.432.375-1.635.908-3.844c.249-3.557.523-9.164 3.315-12.593-.288-1.285.295-5.069.521-6.256 1.613-9.346 5.093-22.786 9.253-32.319l.053-.067s-9.842 35.236-8.572 37.416"/></g><g class="V"><path d="M137.03 442.46c2.313.389 8.981 2.612 5.501 5.699-1.092.647-2.305.345-3.213-.339-.119-.089-.039-.291.108-.277 1.279-.055 2.451.024 2.769-1.093-.348-1.005-1.793-1.668-2.757-2.272l-2.531-1.344c-.205-.092-.097-.419.123-.373"/></g><g class="V"><path d="M134.09 566.32c.233 3.876.583 7.693.285 11.577-.357 2.459-2.152 4.353-4.18 5.6-.123.089-.28-.085-.173-.197 1.641-1.625 3.024-3.281 3.269-5.571.123-3.749-.151-7.621.101-11.397.011-.42.672-.437.697-.012"/></g><g class="V"><path d="M114.66 564.7c-.415 8.241-4.503 11.14-12.344 11.868-.221.032-.319-.299-.108-.387 2.656-1.328 5.855-1.707 8.096-3.713 2.352-2.033 2.571-5.168 3.776-7.909.119-.316.619-.192.58.141"/></g><g class="V"><path d="M148.2 562.03c1.087 2.452 1.459 5.353 2.995 7.529 1.524 2.304 4.123 3.284 6.331 4.845a.25.25 0 0 1-.217.435c-4.316-1.207-8.217-3.808-8.826-8.568a60 60 0 0 1-.737-4.121c-.044-.269.363-.379.456-.12"/></g></g><path d="M186.94 364.55l-10.059 3.16a2.25 2.25 0 0 0-1.472 2.821l7.759 24.696a2.25 2.25 0 0 0 2.821 1.472l9.931-3.12a2.25 2.25 0 0 0 1.477-2.807l-7.636-24.749a2.25 2.25 0 0 0-2.821-1.473" class="b"/><path d="M185.67 395.84l10.125-3.181c.673-.211 1.047-.928.835-1.6l-7.784-24.776c-.211-.673-.927-1.047-1.6-.835l-1.209.379c-.135.043-.211.188-.168.323l.005.015c.127.404-.099.833-.501.96l-5.736 1.799c-.407.128-.84-.101-.963-.509-.041-.137-.187-.215-.324-.171l-1.229.387c-.673.211-1.047.927-.835 1.6l7.784 24.776a1.28 1.28 0 0 0 1.6.835" class="Y"/><defs><path id="A" d="M322.35 455.39a1.95 1.95 0 0 1-1.947 1.948 1.95 1.95 0 0 1-1.948-1.948 1.95 1.95 0 0 1 1.948-1.948 1.95 1.95 0 0 1 1.947 1.948"/><path id="B" d="M639.77 448.62c0 .973-.789 1.763-1.763 1.763s-1.761-.789-1.761-1.763.789-1.763 1.761-1.763 1.763.789 1.763 1.763"/><path id="C" d="M487.43 428.71c0 .853.692 1.545 1.545 1.545s1.547-.692 1.547-1.545-.692-1.545-1.547-1.545-1.545.692-1.545 1.545"/><path id="D" d="M141.56 438.47c0 .969.785 1.755 1.755 1.755s1.755-.785 1.755-1.755-.785-1.755-1.755-1.755-1.755.785-1.755 1.755"/></defs></svg>