<svg xmlns="http://www.w3.org/2000/svg" width="755.904" height="755.905" xmlns:v="https://vecta.io/nano"><style><![CDATA[.a{opacity:.2}.b{stroke-miterlimit:10}.c{stroke-linecap:round}.d{stroke-width:6.667}.e{fill:#ffcd40}.f{stroke-width:4}.g{stroke:#9d9d9c}.h{stroke-linejoin:round}.i{stroke-width:10.667}.j{stroke-width:9.333}]]></style><defs><clipPath id="A"><path d="M907.441 442.944h310.779V163.622H907.441z"/></clipPath><clipPath id="B"><path d="M891.149 510.431h420.471v-46.563H891.149z"/></clipPath><clipPath id="C"><path d="M1088.6 102.18h31.02V76.698h-31.02z"/></clipPath><clipPath id="D"><path d="M967.591 241.287h27.884v-26.474h-27.884z"/></clipPath><clipPath id="E"><path d="M1159.2 402.947h27.15V228.342h-27.15z"/></clipPath><clipPath id="F"><path d="M1009.4 222.071h148.97v-53.197H1009.4z"/></clipPath><clipPath id="G"><path d="M978.321 464.046h6.267v-53.261h-6.267z"/></clipPath><clipPath id="H"><path d="M968.296 343.007h13.994v-25.065h-13.994z"/></clipPath></defs><g clip-path="url(#A)" opacity=".1" transform="matrix(1.333333 0 0 -1.333333 -1039.3626 850.39331)"><path d="M1218.218 163.622H907.441v279.322h310.777z" fill="#1f4f66"/></g><g class="b"><path d="M159.957 284.146h14.695m-14.695 325.17h14.695m403.903-325.17h14.695m-14.695 325.17h14.695" fill="none" stroke="#c6c6c6" class="d"/><path d="M156.661 241.888v397.145" fill="#fff" class="c g i"/></g><g clip-path="url(#B)" opacity=".1" transform="matrix(1.333333 0 0 -1.333333 -1039.3626 850.39331)"><path d="M891.149 464.634l25.891 25.892c12.746 12.745 30.032 19.905 48.057 19.905h271.806c18.024 0 35.311-7.16 48.056-19.905l26.658-26.658z" fill="#1f4f66"/></g><g class="b c g"><path d="M140.466 238.825h575.729" fill="#fff" stroke-width="13.333"/><path d="M359.263 641.54l.013-15.269c.011-24.987 20.269-45.236 45.256-45.236h190.456" fill="none" class="d"/><path d="M596.774 241.888V639.18" fill="#fff" class="i"/></g><g fill="#1d1d1b" class="a"><path d="M105.929 653.343c0 2.986-18.723 5.405-41.818 5.405s-41.818-2.419-41.818-5.405 18.723-5.405 41.818-5.405 41.818 2.419 41.818 5.405"/></g><path d="M64.111 648.904V231.956" fill="none" class="b c g j"/><path d="M118.321 277.308c0 29.94-24.271 54.211-54.211 54.211S9.901 307.248 9.901 277.308s24.271-54.211 54.209-54.211 54.211 24.271 54.211 54.211" fill="#009d5e"/><path d="M64.111 229.011c-26.631 0-48.297 21.667-48.297 48.297s21.667 48.297 48.297 48.297 48.297-21.665 48.297-48.297-21.665-48.297-48.297-48.297m0 8c22.256 0 40.297 18.041 40.297 40.297s-18.041 40.297-40.297 40.297-40.297-18.041-40.297-40.297 18.041-40.297 40.297-40.297m-20.932 12.835h7.431v22.515h27.003v-22.515h7.431v54.925h-7.431v-26.157H50.61v26.157h-7.431z" class="e"/><path d="M270.491 484.19s-4.907-6.057-15.656-5.428c13.677-3.036 15.764-10.243 15.764-10.243zm345.752 194.948l-16.713-29.593 1.256-27.892a148.03 148.03 0 0 1 1.964-18.185L622.085 490.6a94.59 94.59 0 0 0-.675-35.665l-18.845-100.127c-1.088-5.735-3.265-11.193-6.439-16.084l-21.315-38.764-3.128-2.085-3.648-26.112-5.413-24.441-1.917-2.239a9.54 9.54 0 0 0-4.063-2.775l-2.453-.875c-14.337-2.132-28.045 6.64-32.124 20.547l-1.472 5.919a75.25 75.25 0 0 0-1.579 8.249l-1.411 10.443c-1.104 10.119-.981 20.316.368 30.359.843 6.241 2.147 12.436 3.925 18.508l2.376 22.157 1.365 1.517c2.407 2.699 3.267 6.44 2.284 9.905l-.643 2.315a23.19 23.19 0 0 0-.768 8.648l3.405 32.553-19.213-11.071-3.588-4.017-140.96-157.856-100.111-6.548-18.4.307c-5.244.092-10.351 1.656-14.72 4.569-5.045 3.357-11.301 8.663-13.248 16.836-3.911 16.3 12.803 29.103 12.803 29.103s4.815 4.999 18.248 11.7c9.46 4.737 18.092 5.857 18.092 5.857l.429 20.884s-17.756 0-30.299 17.341c-10.227 15.456-13.769 16.376-13.355 35.083.26 12.175.981 21.207 1.441 26.052a13.26 13.26 0 0 0 2.883 7.083l1.732 2.163s-6.684 2.713-11.699 17.756-1.672 19.841-1.672 19.841 3.757 9.613 9.185 18.384c7.865 12.313 13.569 13.188 15.072 13.188-1.824.184-10.349 1.272-14.935 6.716-5.152 6.133-10.856 19.365-11.132 25.897-.153 3.68 2.669 9.155 5.336 13.171a25.23 25.23 0 0 0 8.863 8.143l23.797 10.596c3.727 1.655 7.299 3.587 10.733 5.78l25.637 16.423s17.036 36.447 49.972 76.927c30.16 37.045 37.459 35.988 37.459 35.988l13.939 14.412a129.94 129.94 0 0 1 17.619 22.863l8.908 14.675c1.288 2.131 2.284 4.415 2.944 6.792l54.757 205.167 106.523 2.507 156.235-8.773-122.949-257.351" fill="#af8260"/><g transform="matrix(1.333333 0 0 -1.333333 -1039.3626 850.39331)" fill="#1d1d1b"><g clip-path="url(#C)" class="a"><path d="M1088.604 97.899l4.177-6.475c2.925-4.491 3.551-7.728 4.282-11.801l.94-2.924s-1.044 12.532 10.889 18.873l10.729 6.609-11.697-3.864s-8.25-3.76-14.098-1.985c-1.567.523-5.222 1.567-5.222 1.567"/></g><g clip-path="url(#D)" class="a"><path d="M967.591 231.34c9.19-3.76 27.884-16.527 27.884-16.527l-12.976 26.474s-3.838-8.276-14.908-9.947"/></g><g clip-path="url(#E)" class="a"><path d="M1178.396 354.486l.862-6.256 1.058-21.252c.127-2.53.012-5.083-.356-7.601l-1.61-11.098a78.77 78.77 0 0 1-.736-14.996l1.219-26.519a58.66 58.66 0 0 0-1.99-18.055l-5.531-20.367-12.109 106.514.655 4.841 2.691-3.013 14.41-8.303-2.554 24.415c-.218 2.173-.023 4.381.575 6.486l.483 1.736c.736 2.599.092 5.405-1.713 7.429l-1.024 1.138-1.782 16.618c-1.334 4.554-2.312 9.2-2.944 13.881l.391 2.863 7.463-30.21c.851-3.45 2.749-6.532 5.428-8.855l5.072-4.37-5.486-1.38c-1.633-.403-2.691-1.978-2.472-3.646"/></g><g clip-path="url(#F)" class="a"><path d="M1009.399 222.071l1.714-8.029a14.45 14.45 0 0 1 13.292-11.408l8.81-.513c10.728-.623 21.49-.312 32.163.932l7.151.833c8.668 1.01 30.539 1.035 39.26.744l12.674-.526c4.714-.285 10.022-4.139 11.478-8.632 1.462-4.512-1.452-19.317-4.54-25.675-.3-.618.452-1.208.986-.775l5.021 4.076c2.425 1.969 4.535 4.297 6.255 6.904l1.79 2.711a71.23 71.23 0 0 1 5.412 9.798l.61 1.344c1.426 3.141 2.583 6.397 3.46 9.734l3.432 13.051z"/></g><g clip-path="url(#G)" class="a"><path d="M983.543 464.046l-5.222-1.567v-49.502l6.266-2.193z"/></g><g clip-path="url(#H)" class="a"><path d="M968.296 329.012c10.443-3.551 13.994-11.07 13.994-11.07l-.209 25.064s-4.804-12.532-13.785-13.994"/></g></g><path d="M306.937 52.405h179.541c21.161 0 38.317 17.155 38.317 38.317v440.784c0 21.163-17.156 38.317-38.317 38.317H309.217c-21.064 0-38.177-16.997-38.316-38.06L268.62 90.748c-.016-21.175 17.143-38.344 38.317-38.344" fill="#624b8c"/><path d="M487.232 554.298h-180.73c-12.003 0-21.732-9.729-21.732-21.732V90.34c0-12.001 9.729-21.732 21.732-21.732h21.583a4.38 4.38 0 0 1 4.376 4.376v.263c0 7.204 5.843 13.043 13.047 13.039l102.36-.055c7.259-.004 13.117-5.936 13.031-13.195h0a4.38 4.38 0 0 1 4.376-4.428h21.957c12.003 0 21.732 9.731 21.732 21.732v442.227c0 12.003-9.729 21.732-21.732 21.732" fill="#009d5e"/><g class="e"><path d="M563.192 245.729l-7.797 27.153-.669 7.184a14.69 14.69 0 0 0 2.031 8.916l5.46 9.1c1.196 1.995 2.857 3.688 4.891 4.816 1.603.889 3.388 1.405 4.579.339 2.647-2.367.836-8.632.836-8.632zm-303 245.212s-19.216-5.431-25.064 9.887c-1.176 3.133-1.404 5.855-1.205 8.065.317 3.543 2.581 6.617 5.763 8.208l8.113 4.056s-.696-8.076 3.76-18.241 8.633-11.975 8.633-11.975m-24.785-28.545s-10.304-12.949-4.039-24.925c5.153-10.095 14.483-11.14 14.483-11.14s4.177-.835 10.445 2.2l2.921 1.7s-7.936 4.177-14.62 11.975-9.191 20.191-9.191 20.191"/><path d="M257.825 358.797s-5.135-4.683-12.532-3.899c-2.42.365-11.227 4.96-14.76 12.115s-4.317 27.709-4.317 27.709 3.343-10.583 11.001-19.076 20.608-16.849 20.608-16.849"/></g><g fill="none" stroke="#fff" class="b c h"><path d="M290.13 64.152l79.528 199.253a54.27 54.27 0 0 1 3.768 16.484l5.405 79.052a82.37 82.37 0 0 0 5.12 23.445c21.96 58.22 76.207 113.863 120.061 173.861m-61.825-84.382l75.193-84.592" class="j"/><path d="M395.54 406.558l66.684-72.029a3.91 3.91 0 0 1 5.671-.067l11.827 12.185c2.408 2.481 4.08 5.581 4.831 8.957l1.08 4.863 32.305 25.064m-103.182 50.13l70.876-75.193" class="f"/><path d="M281.776 254.641l65.585 239.781" stroke-width="5.333"/><path d="M406.262 426.749l4.576 10.345c7.856 17.761-1.263 38.431-19.676 44.604l-111.475 37.371" class="f"/><path d="M283.92 148.056l46.313-26.256a55.1 55.1 0 0 0 12.163-9.353l35.933-36.66" class="d"/><path d="M287.624 59.975l106.941 110.701 9.565 9.313a8.03 8.03 0 0 1-.391 11.856l-3.003 2.561c-1.979 1.688-1.356 4.888 1.111 5.711l50.783 16.927c20.887 6.057 63.496 51.8 63.496 51.8" class="f"/><g class="d"><path d="M342.348 189.056L449.289 81.28"/><path d="M512.367 199.917L361.84 64.432"/></g><path d="M516.962 115.951l-40.939 50.547M375.767 310.2s41.765-12.668 61.055-25.759 45.26-47.763 45.26-47.763" class="f"/></g><path d="M508.97 532.567c0 12.007-9.736 21.727-21.743 21.727H306.509c-12.005 0-21.743-9.72-21.743-21.727V90.339c0-12.007 9.737-21.728 21.743-21.728h21.575c2.421 0 4.385 1.963 4.385 4.371v.26c0 7.207 5.841 13.048 13.033 13.048l102.365-.061A13.04 13.04 0 0 0 460.9 73.044v-.061a4.37 4.37 0 0 1 4.369-4.371h21.957c12.007 0 21.743 9.721 21.743 21.728zM486.477 52.403H306.938c-21.175 0-38.333 17.175-38.317 38.349l2.284 441.017c.139 21.053 17.249 38.057 38.319 38.057h177.253c21.16 0 38.317-17.159 38.317-38.319V90.721c0-21.16-17.157-38.319-38.317-38.319" fill="#3c3c3b"/><path d="M417.535 325.935c0 13.228-23.951 45.116-23.951 45.116s-23.951-31.888-23.951-45.116 10.724-23.951 23.951-23.951 23.951 10.723 23.951 23.951" class="e"/><path d="M411.409 325.935c0 9.844-7.98 17.824-17.824 17.824s-17.823-7.98-17.823-17.824 7.98-17.824 17.823-17.824 17.824 7.98 17.824 17.824m-45.97 73.851c-7.716 0-13.993-6.277-13.993-13.993s6.277-13.993 13.993-13.993 13.993 6.277 13.993 13.993-6.277 13.993-13.993 13.993" fill="#fff"/><path d="M365.439 369.798c-8.819 0-15.993 7.175-15.993 15.993s7.175 15.993 15.993 15.993 15.993-7.175 15.993-15.993-7.175-15.993-15.993-15.993m0 4c6.624 0 11.993 5.369 11.993 11.993s-5.369 11.993-11.993 11.993-11.993-5.369-11.993-11.993 5.369-11.993 11.993-11.993m8.352 11.994c0 4.613-3.739 8.352-8.352 8.352s-8.352-3.739-8.352-8.352 3.739-8.352 8.352-8.352 8.352 3.739 8.352 8.352" class="e"/></svg>