<svg xmlns="http://www.w3.org/2000/svg" width="898.446" height="285.251" xmlns:v="https://vecta.io/nano"><path d="M801.427 268.801l-.206-43.071c-.097-23.667 13.616-45.058 34.934-55.339 27.449-13.238 46.286-41.506 45.832-74.125-.607-43.609-36.198-79.2-79.807-79.807-45.246-.63-82.121 35.859-82.121 80.96l.027.202c0 18.27 6.051 35.126 16.258 48.675" fill="none" stroke="#0f9d58" stroke-width="32.9" stroke-linecap="round" stroke-linejoin="round"/><path d="M838.606 7.553c-10.346-3.878-21.378-5.985-32.697-6.146-.469 0-.931-.007-1.4-.007-25.767 0-50.008 9.933-68.383 28.056-18.711 18.452-29.015 43.085-29.015 69.363a15.78 15.78 0 0 0 .028.994c.168 21.035 6.923 40.999 19.565 57.778 1.323 1.757 2.933 3.178 4.718 4.228a12.49 12.49 0 0 0 .588.336 16.32 16.32 0 0 1-8.806-5.964c-12.642-16.779-19.397-36.743-19.565-57.778-.021-.329-.028-.665-.028-.994 0-26.278 10.304-50.911 29.015-69.363C751.001 9.933 775.242 0 801.009 0l1.4.007c12.6.175 24.85 2.765 36.197 7.546z" opacity=".15" fill="#fff"/><path d="M898.435 96.04c.266 18.949-4.921 37.394-14.994 53.34-9.786 15.491-23.667 27.881-40.138 35.826-15.645 7.546-25.704 23.422-25.634 40.46l.21 43.057c.038 8.231-5.974 15.078-13.861 16.325h0c6.569-2.183 11.095-8.326 11.061-15.625l-.21-45.857c-.07-17.038 9.989-32.914 25.634-40.46 16.471-7.945 30.352-20.335 40.138-35.826 10.073-15.946 15.26-34.391 14.994-53.347-.35-25.396-10.507-49.343-28.595-67.431a99.26 99.26 0 0 0-9.184-8.113c4.221 3.045 8.232 6.461 11.984 10.213 18.088 18.088 28.245 42.035 28.595 67.438z" opacity=".2"/><path d="M787.372 66.641v25.893h27.311V66.641h14.836v67.473h-14.836v-29.106h-27.311v29.106h-14.836V66.641zM0 207.632c0-10.166 1.564-18.963 4.692-25.805 2.346-5.083 5.474-9.775 9.384-13.88s8.211-7.038 13.098-8.993c6.256-2.737 13.489-3.91 21.7-3.91 14.857 0 26.782 4.692 35.58 13.88 8.993 9.188 13.294 22.091 13.294 38.512 0 16.226-4.496 28.933-13.294 38.121s-20.722 13.684-35.384 13.684c-15.053 0-26.978-4.496-35.775-13.684C4.496 236.174 0 223.663 0 207.632zm20.918-.782c0 11.339 2.541 20.136 7.82 26.001s11.925 8.797 20.136 8.797 14.857-2.932 19.94-8.797c5.278-5.865 7.82-14.662 7.82-26.196s-2.541-20.136-7.624-25.805-11.73-8.602-20.136-8.602-15.053 2.932-20.331 8.602c-5.083 5.865-7.624 14.466-7.624 26.001zm92.076-22.481h17.985v10.752c2.346-3.714 5.474-6.647 9.579-8.993 3.91-2.346 8.406-3.519 13.293-3.519 8.406 0 15.639 3.323 21.504 9.97s8.797 15.835 8.797 27.76c0 12.121-2.932 21.7-8.993 28.346-5.865 6.842-13.098 10.166-21.7 10.166-4.105 0-7.624-.782-10.948-2.346s-6.647-4.301-10.361-8.211v36.753h-19.354V184.369zm18.963 35.189c0 8.211 1.564 14.271 4.887 18.181s7.233 5.865 11.925 5.865c4.496 0 8.211-1.759 11.143-5.474 2.932-3.519 4.496-9.579 4.496-17.79 0-7.624-1.564-13.293-4.692-17.008s-6.842-5.474-11.339-5.474c-4.692 0-8.602 1.759-11.73 5.474s-4.692 9.188-4.692 16.226zm109.867 14.466l19.158 3.323c-2.541 7.038-6.451 12.512-11.73 16.03-5.278 3.714-11.925 5.474-19.94 5.474-12.707 0-22.091-4.105-28.151-12.512-4.887-6.647-7.233-15.053-7.233-25.219 0-12.121 3.128-21.504 9.579-28.346 6.256-6.842 14.271-10.361 24.046-10.361 10.948 0 19.354 3.519 25.61 10.752s9.188 18.181 8.993 33.038h-48.482c.196 5.669 1.759 10.166 4.692 13.293s6.647 4.692 11.143 4.692c2.932 0 5.474-.782 7.624-2.541s3.519-3.91 4.692-7.624zm.977-19.354c-.195-5.669-1.564-9.775-4.301-12.707s-6.06-4.301-9.97-4.301c-4.301 0-7.624 1.564-10.361 4.692s-4.105 7.233-4.105 12.512h28.737zm101.266 42.617h-19.354v-37.144c0-7.82-.391-12.903-1.173-15.248a10.52 10.52 0 0 0-4.105-5.474c-1.759-1.368-4.105-1.955-6.647-1.955-3.323 0-6.256.977-8.993 2.737s-4.496 4.301-5.474 7.233-1.564 8.602-1.564 16.812v33.038h-19.354v-72.919h17.985v10.752c6.451-8.211 14.466-12.316 24.046-12.316 4.301 0 8.211.782 11.73 2.346s6.256 3.519 8.015 5.865 3.128 5.083 3.714 8.015c.782 2.932.977 7.429.977 12.903v45.354zm14.662-32.647l19.745-1.955c1.173 6.647 3.519 11.534 7.233 14.662s8.602 4.692 14.662 4.692c6.647 0 11.534-1.368 14.857-4.105s4.887-6.06 4.887-9.775c0-2.346-.782-4.496-2.15-6.06-1.368-1.759-3.91-3.128-7.233-4.301-2.346-.782-7.82-2.346-16.226-4.301-10.948-2.737-18.572-6.06-22.873-9.97-6.256-5.474-9.188-12.316-9.188-20.331a26.04 26.04 0 0 1 4.301-14.466c2.933-4.496 7.038-7.82 12.512-10.166s12.121-3.519 19.745-3.519c12.707 0 22.091 2.737 28.542 8.406 6.451 5.474 9.775 12.903 10.166 22.286l-20.331.977c-.782-5.083-2.737-8.993-5.669-11.143-2.932-2.346-7.233-3.323-12.903-3.323-5.865 0-10.557 1.173-13.88 3.714-2.15 1.564-3.323 3.714-3.323 6.256a7.58 7.58 0 0 0 2.932 6.06c2.541 2.15 8.797 4.301 18.767 6.647s17.203 4.692 21.895 7.233 8.406 5.865 11.143 10.166 4.105 9.775 4.105 16.03c0 5.865-1.564 11.143-4.887 16.226-3.128 5.083-7.82 8.797-13.684 11.143-5.865 2.541-13.098 3.714-21.895 3.714-12.707 0-22.482-2.932-29.324-8.797-6.451-6.256-10.557-14.857-11.925-26.001zm132.348-40.271v15.444h-13.293v29.324c0 5.865.195 9.384.391 10.361s.782 1.759 1.759 2.346 1.955.977 3.323.977c1.759 0 4.301-.586 7.82-1.759l1.564 15.053c-4.496 1.955-9.579 2.932-15.248 2.932-3.519 0-6.647-.586-9.384-1.759s-4.887-2.737-6.06-4.496-2.15-4.301-2.737-7.429c-.391-2.15-.586-6.842-.586-13.684v-31.865h-8.797V184.37h8.797v-14.466l19.354-11.339v25.805zm8.993 35.384c0-6.451 1.564-12.707 4.692-18.572 3.128-6.06 7.624-10.557 13.489-13.684s12.316-4.692 19.354-4.692c10.948 0 20.136 3.519 27.173 10.752s10.557 16.226 10.557 27.173-3.519 20.136-10.752 27.369c-7.038 7.233-16.03 10.948-26.978 10.948-6.647 0-13.098-1.564-19.158-4.496s-10.752-7.429-13.88-13.293-4.496-13.098-4.496-21.504zm19.745 1.173c0 7.233 1.759 12.707 5.083 16.617s7.624 5.865 12.707 5.865 9.188-1.955 12.707-5.865c3.323-3.91 5.083-9.384 5.083-16.812 0-7.233-1.759-12.707-5.083-16.421-3.323-3.91-7.624-5.865-12.707-5.865s-9.188 1.955-12.707 5.865-5.083 9.384-5.083 16.617zm70.181-36.557h17.985v10.752c2.346-3.714 5.474-6.647 9.579-8.993 3.91-2.346 8.406-3.519 13.293-3.519 8.406 0 15.639 3.323 21.504 9.97s8.797 15.835 8.797 27.76c0 12.121-2.932 21.7-8.993 28.346s-13.098 10.166-21.7 10.166c-4.105 0-7.624-.782-10.948-2.346s-6.647-4.301-10.361-8.211v36.753h-19.354V184.369zm18.963 35.189c0 8.211 1.564 14.271 4.887 18.181s7.233 5.865 11.925 5.865c4.496 0 8.211-1.759 11.143-5.474 2.932-3.519 4.496-9.579 4.496-17.79 0-7.624-1.564-13.293-4.692-17.008s-6.842-5.474-11.339-5.474c-4.692 0-8.602 1.759-11.73 5.474s-4.692 9.188-4.692 16.226z" fill="#0f9d58"/></svg>