<svg xmlns="http://www.w3.org/2000/svg" width="732.58" height="732.58" viewBox="0 0 549.435 549.435" xmlns:v="https://vecta.io/nano"><path d="M58.195 548.086h433.04c18.895 0 35.359-13.051 40.977-32.484l9.641-33.426c.727-2.523.23-5.25-1.356-7.348a8.34 8.34 0 0 0-6.676-3.328h-12.422l-.004-375.2c0-9.125-7.461-16.555-16.625-16.555H260.54V96.46l244.14-.164v375.2H44.82l-.172-375.04h43.129V79.741H44.648c-9.125 0-16.547 7.426-16.547 16.555v375.2H15.614c-2.629 0-5.102 1.234-6.676 3.332a8.37 8.37 0 0 0-1.356 7.348l9.648 33.426c5.598 19.422 22.062 32.48 40.965 32.48zm175.59-59.871h81.875v4.856c0 4.613-3.746 8.359-8.359 8.359h-65.16c-4.613 0-8.359-3.746-8.359-8.359zm-205.68 0h188.96v4.856c0 13.828 11.246 25.074 25.074 25.074h65.16c13.828 0 25.074-11.246 25.074-25.074l.004-4.856h190.34l-6.562 22.75c-3.527 12.203-13.531 20.406-24.91 20.406H58.195c-11.379 0-21.387-8.203-24.902-20.406l-6.57-22.75zm74.63-370.609H82.508c-9.176 0-16.637 7.418-16.637 16.547v316.19h417.66v-316.19c0-9.125-7.426-16.547-16.555-16.547h-226.47l-11.379 20.82 90.031 89.992.207.207.16.16-.062-.062 1.172 1.172-59.832 59.832h-23.301a10.18 10.18 0 0 1-10.16-10.16V264.59l11.148 11.148 11.82-11.82-31.32-31.32-31.32 31.32 11.82 11.82 11.133-11.133v14.961c0 14.824 12.055 26.879 26.879 26.879h6.582l-96.109 96.113c.059-.059.008-.008-.102.102l-.199.199-.496.496-.398.398-64.195-64.191-.078-205.24h20.223zm364.09 316.02h-84.621l71.324-71.258 13.297 13.254zm0-299.48v217.79l-122.5-122.01.121.121-.121-.121 95.555-95.629zm-120.59 97.688l-.16-.156.16.156zm-.656-.652c-.035-.031-.062-.062-.098-.098zm-.684-.684l-.305-.305.305.305zm-94.953-94.973l.652-1.207h165.61l-83.465 83.398zm17.797 170.91h36.898c9.606 0 17.426 7.82 17.426 17.426s-7.82 17.426-17.426 17.426h-48.508c-14.824 0-26.879 12.055-26.879 26.879s12.055 26.879 26.879 26.879h6.269V378.33h-6.269a10.18 10.18 0 0 1-10.16-10.16 10.18 10.18 0 0 1 10.16-10.16h48.508c18.832 0 34.145-15.312 34.145-34.145s-15.312-34.145-34.145-34.145h-20.184l47.969-47.969 109 109-82.883 82.871h-85.18l-66.438-66.363zm-72.648 72.645l54.609 54.539-109.15.004 54.539-54.543zm-112.5-15.883l52.379 52.371-18.055 18.055H82.591zm217.314 47.699h16.715v12.414h-16.715zm-.66-9.29l15.621-5.957a26.99 26.99 0 0 0-11.371-13.516l-8.555 14.348a10.27 10.27 0 0 1 4.305 5.125zm-24.38-23.27h12.414v16.715h-12.414zM174.165 1.349c-39.516 0-71.656 32.145-71.656 71.656 0 36.77 58.41 112.66 65.07 121.19 3.336 4.285 9.836 4.285 13.176 0 6.66-8.531 65.062-84.414 65.062-121.19-.004-39.516-32.148-71.656-71.652-71.656zm0 173.88c-19.816-26.676-54.941-78.824-54.941-102.23 0-30.289 24.648-54.941 54.941-54.941s54.934 24.648 54.934 54.941c-.004 23.398-35.125 75.547-54.934 102.23zm0-135.599c-16.953 0-30.738 13.785-30.738 30.738s13.785 30.738 30.738 30.738 30.738-13.785 30.738-30.738-13.785-30.738-30.738-30.738zm0 44.762c-7.731 0-14.023-6.293-14.023-14.023s6.293-14.023 14.023-14.023 14.023 6.293 14.023 14.023-6.293 14.023-14.023 14.023zm-43.34 90.594c-6.465 6.684-9.875 14.699-9.875 23.199 0 22.133 23.148 39.555 52.754 39.77.16.012.309.094.473.094h.09c.156 0 .301-.086.457-.094 29.539-.23 52.633-17.645 52.633-39.77 0-8.367-3.363-16.34-9.731-23.051l-12.129 11.508c2.344 2.473 5.141 6.481 5.141 11.543 0 12.438-16.625 23-36.297 23.066v.047c-.098-.004-.187-.043-.285-.043v-.004c-19.719-.066-36.387-10.629-36.387-23.066 0-5.141 2.816-9.133 5.176-11.574z"/></svg>