<svg xmlns="http://www.w3.org/2000/svg" width="716.785" height="716.785" viewBox="0 0 537.589 537.589" xmlns:v="https://vecta.io/nano"><path d="M442.076 536.757V31.577h-108.16v16.719h91.445v471.74H38.791v-37.664h17.023v-16.715H38.791v-46.566h17.023v-16.715H38.791v-46.559h17.023v-16.719H38.791v-46.562h17.023v-16.719H38.791v-46.566h17.023v-16.715H38.791V165.97h17.023v-16.715H38.791v-46.559h17.023V85.977H38.791V48.293h91.434V31.574H22.075v54.402H5.024v16.719h17.051v46.559H5.024v16.715h17.051v46.566H5.024v16.715h17.051v46.566H5.024v16.719h17.051v46.562H5.024v16.719h17.051v46.559H5.024v16.715h17.051v46.566H5.024v16.715h17.051v54.379zM292.126 17.711h-36.273C252.408 7.891 243.072.832 232.119.832c-10.996 0-20.363 7.059-23.824 16.879h-36.273c-13.828 0-25.074 11.246-25.074 25.074v34.918H86.643c-4.621 0-8.359 3.738-8.359 8.359v396.25c0 4.621 3.738 8.359 8.359 8.359h223.78c2.18 0 4.313-.836 5.965-2.523.019-.019.047-.027.066-.047l67.07-69.859c1.359-1.418 2.328-4.141 2.328-5.785l-.004-326.39c0-4.621-3.738-8.359-8.359-8.359h-60.285V42.79c0-13.824-11.246-25.074-25.074-25.074zm-128.46 25.074c0-4.613 3.746-8.359 8.359-8.359h51.57v-8.359c0-4.703 3.828-8.519 8.531-8.519 4.652 0 8.441 3.82 8.441 8.52v8.359h51.57c4.613 0 8.359 3.746 8.359 8.359v34.918h-136.83zm155.11 418.75v-40.727h39.098zm50.355-367.11v309.67H310.42c-4.621 0-8.359 3.738-8.359 8.359v61.504l-207.06-.004V94.424c-.859 0 45.52.016 274.13 0zm-147.475 72.202h121.88v16.715h-121.88zm0-47.35h121.88v16.715h-121.88zm-109.42 71.02h77.984v-77.984h-77.984zm16.719-61.266h44.551v44.551l-44.551-.004zm92.701 147.996h121.88v16.715h-121.88zm0-47.35h121.88v16.715h-121.88zm-109.42 71.02h77.984v-77.984h-77.984zm16.719-61.266h44.551v44.551h-44.551zm92.701 148.006h55.016v16.715h-55.016z"/><path d="M221.656 340.087h121.88v16.715h-121.88zm-109.42 71.01h77.984v-77.973h-77.984zm16.719-61.258h44.551v44.543h-44.551zm366.411-238.862c-20.316.148-36.723 16.789-36.574 37.09l.105 299.95v-.059.129l.004 1.594v-.457 1.391.262-.145 1.008c0 3.879 8.234 19.246 31.66 73.273a8.36 8.36 0 0 0 7.641 4.973h.262c3.402-.113 6.398-2.269 7.574-5.461 20.211-55.582 26.527-69.902 26.527-73.176v-1.008.145-.262-1.391.457l-.004-1.594v-.129.059l-.105-300.07c-.148-20.172-16.668-36.578-37.09-36.578zm-19.859 36.977c-.082-11.094 8.879-20.176 20.113-20.258 11.012 0 20.039 8.961 20.121 19.973l.051 7.707-40.23.277zm.105 24.414l11.703-.082.004 263.52c-4.363.672-8.316 1.719-11.703 2.883zm21.891 327.05l-19.41-43.844c7.531-3.117 21.008-6.508 35.699-.176zm18.344-61.199c-4.047-1.379-8-2.25-11.812-2.719V172.18l11.812-.082z"/></svg>