<svg xmlns="http://www.w3.org/2000/svg" width="723.193" height="723.193" viewBox="0 0 542.395 542.395" xmlns:v="https://vecta.io/nano"><path d="M.408 3.739v269.75h534.93v-79.973-126.52h-141.99V3.734H.418zm250.95 16.715h125.27v46.543h-125.27zm24.734 63.258v46.543h-125.27V83.712zm-158.43-63.258h116.98v46.543h-116.98zm-100.54 0h83.82v46.543h-83.82zm0 63.258h116.97v46.543H17.122zm83.82 173.06h-83.82v-46.543h83.82zm0-63.258h-83.82v-46.543h83.82zm133.7 63.258h-116.98v-46.543h116.98zm0-63.258h-116.98v-46.543h33.156 83.828zm141.98 63.258h-125.27v-46.543h125.27zm0-63.258h-125.27v-46.543h125.27zm141.99 63.258h-125.28v-46.543h125.27zm-125.28-63.258v-46.543h67.25v46.543zm125.28 0H477.3v-46.543h41.309zm-83.828-109.8h83.828v43.031h-83.828zm-16.719 0v46.543h-41.449H292.8V83.714h125.27zm80.212 377.756v-61.773c24.738-4.019 43.711-25.477 43.711-51.332 0-28.707-23.359-52.059-52.066-52.059s-52.066 23.352-52.066 52.059c0 25.855 18.969 47.312 43.711 51.332v61.773h-271.28l-1.641-8.082h37.309v-162.98H.435v162.98h37.309l-14.68 72.344 16.391 3.332 6.363-31.352h154.76l3.727 18.363 2.637 12.984 16.391-3.332-1.961-9.656h260.19v5.871h-23.508c-4.621 0-8.359 3.738-8.359 8.359s3.738 8.359 8.359 8.359h63.73c4.621 0 8.359-3.738 8.359-8.359s-3.738-8.359-8.359-8.359h-23.508zm-269.04-85.664l-60.867 60.867h-37.211l98.078-98.078zm0-68.688v7.836l-121.71 121.71H70.23l129.55-129.55zm-212.09 0h37.211l-37.215 37.219zm0 60.859l60.852-60.859h37.211l-98.062 98.07zm0 68.691v-7.844l121.7-121.71h37.293L46.59 436.664zm32.055 44.324l5.602-27.605h136.77l1.641 8.082h-.004l3.965 19.523zm142.8-44.324l37.227-37.227v37.227zm44.398 62.688h-18.43l-4.297-21.172h44.742zm54.996 0h-30.883l22.012-21.172h30.883zm55.004 0h-30.887l22.012-21.172h30.934zm55.074 0H370.54l22.059-21.172h30.887zm80.078 0h-55.961l22.012-21.172h33.949zm-26.992-150.99c0-19.492 15.859-35.344 35.352-35.344 6.715 0 12.934 1.984 18.285 5.246l-48.387 48.379c-3.266-5.352-5.25-11.57-5.25-18.281zm35.352 35.348c-6.715 0-12.93-1.984-18.281-5.246l48.387-48.383c3.262 5.352 5.246 11.566 5.246 18.277 0 19.492-15.859 35.352-35.352 35.352z"/></svg>